<svg version="1.1" id="Layer_1" xmlns="http://www.w3.org/2000/svg" xmlns:xlink="http://www.w3.org/1999/xlink" x="0px" y="0px"
	 width="19px" height="38px" viewBox="-9.5 -9.5 19 38" enable-background="new -9.5 -9.5 19 38" xml:space="preserve">
<g id="b">
</g>
<g id="d">
	<g>
		<linearGradient id="SVGID_1_" gradientUnits="userSpaceOnUse" x1="-3.819878e-010" y1="8.5" x2="3.777074e-010" y2="-8.421">
			<stop  offset="0" style="stop-color:#E6E6E6"/>
			<stop  offset="1" style="stop-color:$nemo-color-LightPoint"/>
		</linearGradient>
		<path fill="url(#SVGID_1_)" d="M8.5,6.5c0,1.1-0.9,2-2,2h-13c-1.1,0-2-0.9-2-2v-13c0-1.1,0.9-2,2-2h13c1.1,0,2,0.9,2,2V6.5z"/>
		<path fill="#DDDDDC" d="M6.5-8.5c1.1,0,2,0.9,2,2v13c0,1.1-0.9,2-2,2h-13c-1.1,0-2-0.9-2-2v-13c0-1.1,0.9-2,2-2H6.5 M6.5-9.5h-13
			c-1.7,0-3,1.3-3,3v13c0,1.7,1.3,3,3,3h13c1.7,0,3-1.3,3-3v-13C9.5-8.2,8.2-9.5,6.5-9.5z"/>
		<path fill="$nemo-color-LightPoint" d="M6.5-7.5c0.6,0,1,0.4,1,1v13c0,0.6-0.4,1-1,1h-13c-0.6,0-1-0.4-1-1v-13c0-0.6,0.4-1,1-1H6.5 M6.5-8.5h-13
			c-1.1,0-2,0.9-2,2v13c0,1.1,0.9,2,2,2h13c1.1,0,2-0.9,2-2v-13C8.5-7.6,7.6-8.5,6.5-8.5z"/>
		<path fill="#1F90CF" d="M-4.2-1.6l-1.7,1.3l4.2,5.5L6-3.3L4.4-4.9L-2,1.3L-4.2-1.6z"/>
		<linearGradient id="SVGID_2_" gradientUnits="userSpaceOnUse" x1="-3.810783e-010" y1="27.5" x2="3.786169e-010" y2="10.579">
			<stop  offset="0" style="stop-color:#E6E6E6"/>
			<stop  offset="1" style="stop-color:$nemo-color-LightPoint"/>
		</linearGradient>
		<path fill="url(#SVGID_2_)" d="M8.5,25.5c0,1.1-0.9,2-2,2h-13c-1.1,0-2-0.9-2-2v-13c0-1.1,0.9-2,2-2h13c1.1,0,2,0.9,2,2V25.5z"/>
		<path fill="#DDDDDC" d="M6.5,10.5c1.1,0,2,0.9,2,2v13c0,1.1-0.9,2-2,2h-13c-1.1,0-2-0.9-2-2v-13c0-1.1,0.9-2,2-2H6.5 M6.5,9.5h-13
			c-1.7,0-3,1.3-3,3v13c0,1.7,1.3,3,3,3h13c1.7,0,3-1.3,3-3v-13C9.5,10.8,8.2,9.5,6.5,9.5z"/>
		<path fill="$nemo-color-LightPoint" d="M6.5,11.5c0.6,0,1,0.4,1,1v13c0,0.6-0.4,1-1,1h-13c-0.6,0-1-0.4-1-1v-13c0-0.6,0.4-1,1-1H6.5 M6.5,10.5
			h-13c-1.1,0-2,0.9-2,2v13c0,1.1,0.9,2,2,2h13c1.1,0,2-0.9,2-2v-13C8.5,11.4,7.6,10.5,6.5,10.5z"/>
		<path opacity="0.25" fill="#BDBDBD" enable-background="new    " d="M-4.2,17.4l-1.7,1.3l4.2,5.5L6,15.7l-1.6-1.6L-2,20.3
			L-4.2,17.4z"/>
	</g>
</g>
</svg>
