<?xml version="1.0" encoding="utf-8"?>
<!-- Generator: Adobe Illustrator 18.1.1, SVG Export Plug-In . SVG Version: 6.00 Build 0)  -->
<svg version="1.1" id="Layer_1" xmlns="http://www.w3.org/2000/svg" xmlns:xlink="http://www.w3.org/1999/xlink" x="0px" y="0px"
	 width="19px" height="19px" viewBox="-590 482 19 19" style="enable-background:new -590 482 19 19;" xml:space="preserve">
<style type="text/css">
	.st0{fill:#E6E6E6;}
	.st1{fill:#FFFFFF;}
</style>
<path class="st0" d="M-574,482h-13c-1.6569,0-3,1.3431-3,3v13c0,1.6569,1.3431,3,3,3h13c1.6569,0,3-1.3431,3-3v-13
	C-571,483.3431-572.3431,482-574,482z M-581.5498,495.7083l-4.3726-5.015l1.4141-1.4141l2.9585,2.5749l5.0713-4.6872l1.4141,1.4141
	L-581.5498,495.7083z"/>
<g id="b">
</g>
<path class="st1" d="M-575,483h-11c-1.6569,0-3,1.3431-3,3v11c0,1.6569,1.3431,3,3,3h11c1.6569,0,3-1.3431,3-3v-11
	C-572,484.3431-573.3431,483-575,483z M-581.5498,495.7083l-4.3726-5.015l1.4141-1.4141l2.9585,2.5749l5.0713-4.6872l1.4141,1.4141
	L-581.5498,495.7083z"/>
</svg>
