<svg version="1.1" id="Layer_1" xmlns="http://www.w3.org/2000/svg" xmlns:xlink="http://www.w3.org/1999/xlink" x="0px" y="0px"
	 width="12px" height="12px" viewBox="0 0 12 12" style="enable-background:new 0 0 12 12;" xml:space="preserve">
<style type="text/css">
	.st1{fill:#0C91D7;}
</style>
<g>
	<g>
		<path class="st1" d="M12,10c0,1.1-0.9,2-2,2H2c-1.1,0-2-0.9-2-2V2c0-1.1,0.9-2,2-2h8c1.1,0,2,0.9,2,2V10z"/>
	</g>
	<g>
		<path class="st0" d="M3.43,4.635c-0.013-1.651,1.043-2.74,2.694-2.74c1.37,0,2.447,0.82,2.447,2.269
			c0,1.055-0.493,1.448-0.987,1.864c-0.572,0.483-0.988,0.82-0.988,1.897H5.383c0-1.314,0.281-1.763,0.875-2.279
			c0.484-0.416,0.91-0.685,0.91-1.438c0-0.91-0.696-1.247-1.1-1.247c-0.922,0-1.359,0.663-1.359,1.673H3.43z M5.214,8.701h1.505
			v1.404H5.214V8.701z"/>
	</g>
</g>
</svg>
