<?xml version="1.0" encoding="utf-8"?>
<!-- Generator: Adobe Illustrator 18.0.0, SVG Export Plug-In . SVG Version: 6.00 Build 0)  -->
<!DOCTYPE svg PUBLIC "-//W3C//DTD SVG 1.1//EN" "http://www.w3.org/Graphics/SVG/1.1/DTD/svg11.dtd">
<svg version="1.1" id="Layer_1" xmlns="http://www.w3.org/2000/svg" xmlns:xlink="http://www.w3.org/1999/xlink" x="0px" y="0px"
	 viewBox="0 0 22 22" enable-background="new 0 0 22 22" xml:space="preserve">
<path fill-rule="evenodd" clip-rule="evenodd" fill="#70B2E2" d="M4.3,0h13.4C20.1,0,22,1.9,22,4.3v13.4c0,2.4-1.9,4.3-4.3,4.3H4.3
	C1.9,22,0,20.1,0,17.7V4.3C0,1.9,1.9,0,4.3,0L4.3,0z M16.6,13.5L16.6,13.5c0-0.8-0.2-1.5-0.7-2c-0.5-0.5-1.1-0.8-1.8-1v-0.1
	c0.5-0.2,0.9-0.6,1.2-1c0.3-0.5,0.5-1,0.5-1.6c0-0.5-0.1-1-0.3-1.4c-0.2-0.4-0.5-0.7-1-1c-0.4-0.2-0.8-0.4-1.3-0.4
	C12.7,5,12,5,11.1,5H6.8v12.3h4.9c0.8,0,1.5-0.1,2.1-0.2c0.5-0.2,1.1-0.4,1.5-0.8c0.4-0.3,0.7-0.7,0.9-1.1
	C16.5,14.6,16.6,14.1,16.6,13.5L16.6,13.5z M12.7,8.4L12.7,8.4c0-0.2-0.1-0.4-0.2-0.6c-0.1-0.2-0.3-0.4-0.5-0.5
	c-0.2-0.1-0.4-0.1-0.7-0.2c-0.3,0-0.7,0-1.2,0H9.9v2.6h0.4c0.5,0,0.9,0,1.1,0c0.2,0,0.4-0.1,0.7-0.2c0.2-0.1,0.4-0.3,0.5-0.5
	C12.6,8.9,12.7,8.7,12.7,8.4L12.7,8.4z M13.4,13.4L13.4,13.4c0-0.4-0.1-0.7-0.2-0.9c-0.2-0.2-0.4-0.4-0.7-0.5
	c-0.2-0.1-0.4-0.1-0.8-0.1c-0.3,0-0.8,0-1.3,0H9.9V15H10c0.8,0,1.4,0,1.7,0c0.3,0,0.6-0.1,0.9-0.2c0.3-0.1,0.5-0.3,0.6-0.5
	C13.4,14,13.4,13.7,13.4,13.4z"/>
</svg>
