<?xml version="1.0" encoding="utf-8"?>
<!-- Generator: Adobe Illustrator 18.0.0, SVG Export Plug-In . SVG Version: 6.00 Build 0)  -->
<!DOCTYPE svg PUBLIC "-//W3C//DTD SVG 1.1//EN" "http://www.w3.org/Graphics/SVG/1.1/DTD/svg11.dtd">
<svg version="1.1" id="Layer_1" xmlns="http://www.w3.org/2000/svg" xmlns:xlink="http://www.w3.org/1999/xlink" x="0px" y="0px"
	 viewBox="0 0 32 17" enable-background="new 0 0 32 17" xml:space="preserve">
<g>
	<g>
		<g>
			<rect y="16" fill="#BB1F40" width="32" height="1"/>
		</g>
		<g>
			<rect y="14" fill="#BB1F40" width="32" height="1"/>
		</g>
		<g>
			<rect y="12" fill="#BB1F40" width="32" height="1"/>
		</g>
		<g>
			<rect y="10" fill="#BB1F40" width="32" height="1"/>
		</g>
		<g>
			<rect y="8" fill="#BB1F40" width="32" height="1"/>
		</g>
		<g>
			<rect y="6" fill="#BB1F40" width="32" height="1"/>
		</g>
		<g>
			<rect y="4" fill="#BB1F40" width="32" height="1"/>
		</g>
		<g>
			<rect y="2" fill="#BB1F40" width="32" height="1"/>
		</g>
		<g>
			<rect fill="#BB1F40" width="32" height="1"/>
		</g>
	</g>
	<rect fill="#0E2346" width="16" height="9"/>
	<g>
		<g>
			<g>
				<g>
					<circle fill="#FFFFFF" cx="14.5" cy="6.5" r="0.5"/>
				</g>
				<g>
					<circle fill="#FFFFFF" cx="11.5" cy="6.5" r="0.5"/>
				</g>
				<g>
					<circle fill="#FFFFFF" cx="8.5" cy="6.5" r="0.5"/>
				</g>
				<g>
					<circle fill="#FFFFFF" cx="5.5" cy="6.5" r="0.5"/>
				</g>
				<g>
					<circle fill="#FFFFFF" cx="2.5" cy="6.5" r="0.5"/>
				</g>
			</g>
			<g>
				<g>
					<circle fill="#FFFFFF" cx="14.5" cy="4.5" r="0.5"/>
				</g>
				<g>
					<circle fill="#FFFFFF" cx="11.5" cy="4.5" r="0.5"/>
				</g>
				<g>
					<circle fill="#FFFFFF" cx="8.5" cy="4.5" r="0.5"/>
				</g>
				<g>
					<circle fill="#FFFFFF" cx="5.5" cy="4.5" r="0.5"/>
				</g>
				<g>
					<circle fill="#FFFFFF" cx="2.5" cy="4.5" r="0.5"/>
				</g>
			</g>
			<g>
				<g>
					<circle fill="#FFFFFF" cx="14.5" cy="2.5" r="0.5"/>
				</g>
				<g>
					<circle fill="#FFFFFF" cx="11.5" cy="2.5" r="0.5"/>
				</g>
				<g>
					<circle fill="#FFFFFF" cx="8.5" cy="2.5" r="0.5"/>
				</g>
				<g>
					<circle fill="#FFFFFF" cx="5.5" cy="2.5" r="0.5"/>
				</g>
				<g>
					<circle fill="#FFFFFF" cx="2.5" cy="2.5" r="0.5"/>
				</g>
			</g>
		</g>
		<g>
			<g>
				<g>
					<circle fill="#FFFFFF" cx="13.5" cy="7.5" r="0.5"/>
				</g>
				<g>
					<circle fill="#FFFFFF" cx="10.5" cy="7.5" r="0.5"/>
				</g>
				<g>
					<circle fill="#FFFFFF" cx="7.5" cy="7.5" r="0.5"/>
				</g>
				<g>
					<circle fill="#FFFFFF" cx="4.5" cy="7.5" r="0.5"/>
				</g>
				<g>
					<circle fill="#FFFFFF" cx="1.5" cy="7.5" r="0.5"/>
				</g>
			</g>
			<g>
				<g>
					<circle fill="#FFFFFF" cx="13.5" cy="5.5" r="0.5"/>
				</g>
				<g>
					<circle fill="#FFFFFF" cx="10.5" cy="5.5" r="0.5"/>
				</g>
				<g>
					<circle fill="#FFFFFF" cx="7.5" cy="5.5" r="0.5"/>
				</g>
				<g>
					<circle fill="#FFFFFF" cx="4.5" cy="5.5" r="0.5"/>
				</g>
				<g>
					<circle fill="#FFFFFF" cx="1.5" cy="5.5" r="0.5"/>
				</g>
			</g>
			<g>
				<g>
					<circle fill="#FFFFFF" cx="13.5" cy="3.5" r="0.5"/>
				</g>
				<g>
					<circle fill="#FFFFFF" cx="10.5" cy="3.5" r="0.5"/>
				</g>
				<g>
					<circle fill="#FFFFFF" cx="7.5" cy="3.5" r="0.5"/>
				</g>
				<g>
					<circle fill="#FFFFFF" cx="4.5" cy="3.5" r="0.5"/>
				</g>
				<g>
					<circle fill="#FFFFFF" cx="1.5" cy="3.5" r="0.5"/>
				</g>
			</g>
			<g>
				<g>
					<circle fill="#FFFFFF" cx="13.5" cy="1.5" r="0.5"/>
				</g>
				<g>
					<circle fill="#FFFFFF" cx="10.5" cy="1.5" r="0.5"/>
				</g>
				<g>
					<circle fill="#FFFFFF" cx="7.5" cy="1.5" r="0.5"/>
				</g>
				<g>
					<circle fill="#FFFFFF" cx="4.5" cy="1.5" r="0.5"/>
				</g>
				<g>
					<circle fill="#FFFFFF" cx="1.5" cy="1.5" r="0.5"/>
				</g>
			</g>
		</g>
	</g>
</g>
</svg>
