<?xml version="1.0" encoding="utf-8"?>
<!-- Generator: Adobe Illustrator 20.1.0, SVG Export Plug-In . SVG Version: 6.00 Build 0)  -->
<svg version="1.1" id="Слой_1" xmlns="http://www.w3.org/2000/svg" xmlns:xlink="http://www.w3.org/1999/xlink" x="0px" y="0px"
	 viewBox="0 0 130 130" width="15" height="15" style="enable-background:new 0 0 130 130;" xml:space="preserve">
<style type="text/css">
	.st0{fill:#688ACF;}
</style>
<g>
	<path class="st0" d="M65,0C29.1,0,0,29.1,0,65s29.1,65,65,65s65-29.1,65-65S100.9,0,65,0z M65,10c30.4,0,55,24.6,55,55
		s-24.6,55-55,55S10,95.4,10,65S34.6,10,65,10z"/>
	<path class="st0" d="M75,36.3c0,6.2-5,11.3-11.2,11.3s-11.2-5-11.2-11.3S57.5,25,63.7,25S75,30,75,36.3z"/>
	<path class="st0" d="M75.7,96c-0.1,2.7,1.2,3.5,4.3,3.8l5,0.1v5.1H45.9v-5.1l5.5-0.1c3.3-0.1,4.1-1.4,4.3-3.8V65.1
		c0-4.9-6.3-4.1-10.8-4v-5.1L75.7,55"/>
</g>
</svg>
