<?xml version="1.0" encoding="utf-8"?>
<!-- Generator: Adobe Illustrator 18.0.0, SVG Export Plug-In . SVG Version: 6.00 Build 0)  -->
<!DOCTYPE svg PUBLIC "-//W3C//DTD SVG 1.1//EN" "http://www.w3.org/Graphics/SVG/1.1/DTD/svg11.dtd">
<svg version="1.1" id="Layer_1" xmlns="http://www.w3.org/2000/svg" xmlns:xlink="http://www.w3.org/1999/xlink" x="0px" y="0px"
	 viewBox="0 0 22 17.9" enable-background="new 0 0 22 17.9" xml:space="preserve">
<g>
	<g>
		<path fill="#FFFFFF" d="M21.8,1.9c-0.2-0.3-0.5-0.4-0.8-0.4H5.7L1.3,0C0.8-0.1,0.2,0.2,0,0.7C-0.1,1.2,0.2,1.8,0.7,2l4.1,1.3
			l2.8,8.6c0.1,0.4,0.5,0.7,1,0.7H18c0.4,0,0.8-0.3,1-0.7l3-9.1C22.1,2.5,22,2.1,21.8,1.9z M19.6,3.5L18.8,6H7.7L6.9,3.5H19.6z
			 M17.3,10.6H9.2L8.4,8h9.8L17.3,10.6z"/>
		<circle fill="#FFFFFF" cx="10.1" cy="15.9" r="2"/>
		<circle fill="#FFFFFF" cx="16.2" cy="15.9" r="2"/>
	</g>
</g>
</svg>
