<?xml version="1.0" encoding="utf-8"?>
<!-- Generator: Adobe Illustrator 17.0.0, SVG Export Plug-In . SVG Version: 6.00 Build 0)  -->
<!DOCTYPE svg PUBLIC "-//W3C//DTD SVG 1.1//EN" "http://www.w3.org/Graphics/SVG/1.1/DTD/svg11.dtd">
<svg version="1.1" id="Layer_1" xmlns="http://www.w3.org/2000/svg" xmlns:xlink="http://www.w3.org/1999/xlink" x="0px" y="0px"
	 width="80px" height="370px" viewBox="0 0 80 370" enable-background="new 0 0 80 370" xml:space="preserve">
<g>
	<g>
		<g>
			<line fill="none" stroke="#636568" stroke-miterlimit="10" x1="1" y1="3.5" x2="14" y2="3.5"/>
			<g>
				<polygon fill="#636568" points="12.611,4.852 13.397,3 12.611,1.148 17,3 				"/>
			</g>
		</g>
	</g>
	<g>
		<g>
			<line fill="none" stroke="#636568" stroke-miterlimit="10" x1="17" y1="8.5" x2="4" y2="8.5"/>
			<g>
				<polygon fill="#636568" points="5.389,6.148 4.603,8 5.389,9.852 1,8 				"/>
			</g>
		</g>
	</g>
</g>
<g>
	<g>
		<line fill="none" stroke="#636568" stroke-miterlimit="10" x1="1" y1="16.5" x2="14" y2="16.5"/>
		<g>
			<polygon fill="#636568" points="12.611,17.852 13.397,16 12.611,14.148 17,16 			"/>
		</g>
	</g>
</g>
<g>
	<polyline fill="none" stroke="#FBFEFF" stroke-miterlimit="10" points="10,33 5,39 0,33 	"/>
	<polyline fill="none" stroke="#FBFEFF" stroke-miterlimit="10" points="0,27 5,21 10,27 	"/>
</g>
<g>
	<g>
		<rect x="8" y="52" fill="#FFFFFF" width="4" height="20"/>
	</g>
	<g>
		<rect y="60" fill="#FFFFFF" width="20" height="4"/>
	</g>
</g>
<g>
	<g>
		<polygon fill="#D9D9D9" points="10.412,80 12.834,85.511 18.823,86.111 14.331,90.118 15.61,96 10.412,92.965 5.213,96 
			6.493,90.118 2,86.111 7.99,85.511 		"/>
	</g>
</g>
<g>
	<g>
		
			<linearGradient id="SVGID_1_" gradientUnits="userSpaceOnUse" x1="10.4115" y1="1319.522" x2="10.4115" y2="1303.522" gradientTransform="matrix(1 0 0 1 0 -1193.522)">
			<stop  offset="0" style="stop-color:#F9BA00"/>
			<stop  offset="1" style="stop-color:#ECD590"/>
		</linearGradient>
		<polygon fill="url(#SVGID_1_)" points="10.412,110 12.834,115.511 18.823,116.111 14.331,120.118 15.61,126 10.412,122.965 
			5.213,126 6.493,120.118 2,116.111 7.99,115.511 		"/>
	</g>
</g>
<polygon opacity="0.75" fill="#52A2CC" enable-background="new    " points="15.556,160 17.538,158.012 13.875,148.192 20,142.047 
	19.522,140.479 17.958,140 11.832,146.143 1.982,142.409 0,144.397 8.409,149.699 4.144,153.977 1.142,153.977 3.603,156.444 
	6.062,158.912 6.065,155.902 10.329,151.626 "/>
<polygon fill="#7BB236" points="15.556,190 17.538,188.012 13.875,178.192 20,172.047 19.522,170.479 17.958,170 11.832,176.143 
	1.982,172.409 0,174.397 8.409,179.699 4.145,183.977 1.142,183.977 3.603,186.444 6.063,188.912 6.065,185.902 10.33,181.626 "/>
<g>
	<g>
		<path fill="#FFFFFF" d="M61.809,1.888C61.621,1.629,61.321,1.476,61,1.476H45.701l-4.392-1.427c-0.526-0.17-1.09,0.117-1.26,0.642
			s0.117,1.089,0.642,1.26l4.058,1.318l2.794,8.601c0.134,0.412,0.518,0.691,0.951,0.691h9.553c0.433,0,0.817-0.279,0.951-0.691
			l2.952-9.085C62.05,2.481,61.997,2.147,61.809,1.888z M59.624,3.476l-0.826,2.543H47.746L46.92,3.476H59.624z M57.322,10.562h-8.1
			l-0.826-2.543h9.752L57.322,10.562z"/>
		<circle fill="#FFFFFF" cx="50.12" cy="15.925" r="2"/>
		<circle fill="#FFFFFF" cx="56.245" cy="15.925" r="2"/>
	</g>
</g>
<g>
	<g>
		<g>
			<circle fill="#FFFFFF" cx="40" cy="40" r="10"/>
		</g>
	</g>
	<circle fill="#D4E8F2" cx="40" cy="40" r="8.125"/>
	<path fill="#EEF6FA" d="M33.75,41.25c0,2.415,1.059,4.576,2.732,6.066c1.064,0.514,2.255,0.809,3.518,0.809
		c4.488,0,8.125-3.637,8.125-8.125c0-2.415-1.059-4.576-2.732-6.066c-1.064-0.514-2.255-0.809-3.518-0.809
		C37.387,33.125,33.75,36.762,33.75,41.25z"/>
	<line fill="none" stroke="#52A2CC" stroke-linecap="round" stroke-miterlimit="10" x1="40" y1="40" x2="35.508" y2="35.313"/>
	<line fill="none" stroke="#52A2CC" stroke-linecap="round" stroke-miterlimit="10" x1="40.937" y1="43.633" x2="40" y2="40"/>
	<circle fill="#52A2CC" cx="40" cy="40" r="0.938"/>
</g>
<polyline fill="none" stroke="#64B5F6" stroke-width="2" stroke-miterlimit="10" points="50,60 45,66 40,60 "/>
<g>
	<polygon fill="#FFFFFF" points="43.182,80.353 48.485,80 48.132,85.303 	"/>
	<polygon fill="#FFFFFF" points="45.304,88.132 40,88.484 40.354,83.182 	"/>
</g>
<g>
	<polygon fill="#A0A0A0" points="43.182,100.353 48.485,100 48.132,105.303 	"/>
	<polygon fill="#A0A0A0" points="45.304,108.132 40,108.484 40.354,103.182 	"/>
</g>
<g>
	<circle fill="#FFFFFF" cx="40" cy="330" r="40"/>
	<path fill="#F2DBD4" d="M7.5,330c0-17.95,14.547-32.5,32.5-32.5s32.5,14.55,32.5,32.5S57.953,362.5,40,362.5S7.5,347.95,7.5,330z"
		/>
	<path fill="#FAF1EE" d="M15,335c0,9.661,4.237,18.305,10.93,24.263c4.258,2.055,9.018,3.237,14.07,3.237
		c17.953,0,32.5-14.55,32.5-32.5c0-9.661-4.237-18.305-10.93-24.263c-4.258-2.055-9.018-3.237-14.07-3.237
		C29.547,302.5,15,317.05,15,335z"/>
	<line fill="none" stroke="#CC7052" stroke-linecap="round" stroke-miterlimit="10" x1="40" y1="330" x2="22.031" y2="311.25"/>
	<line fill="none" stroke="#CC7052" stroke-linecap="round" stroke-miterlimit="10" x1="43.75" y1="344.531" x2="40" y2="330"/>
	<circle fill="#CC7052" cx="40" cy="330" r="3.75"/>
</g>
<g>
	<circle fill="#FFFFFF" cx="40" cy="240" r="40"/>
	<path fill="#D4E8F2" d="M7.5,240c0-17.95,14.547-32.5,32.5-32.5s32.5,14.55,32.5,32.5S57.953,272.5,40,272.5S7.5,257.95,7.5,240z"
		/>
	<path fill="#EEF6FA" d="M15,245c0,9.661,4.237,18.305,10.93,24.263c4.258,2.055,9.018,3.237,14.07,3.237
		c17.953,0,32.5-14.55,32.5-32.5c0-9.661-4.237-18.305-10.93-24.263c-4.258-2.055-9.018-3.237-14.07-3.237
		C29.547,212.5,15,227.05,15,245z"/>
	<line fill="none" stroke="#52A2CC" stroke-linecap="round" stroke-miterlimit="10" x1="40" y1="240" x2="22.031" y2="221.25"/>
	<line fill="none" stroke="#52A2CC" stroke-linecap="round" stroke-miterlimit="10" x1="43.75" y1="254.531" x2="40" y2="240"/>
	<circle fill="#52A2CC" cx="40" cy="240" r="3.75"/>
</g>
<polygon fill="#51505A" points="48,121 47,120 44,123 41,120 40,121 43,124 40,127 41,128 44,125 47,128 48,127 45,124 "/>
</svg>
