<?xml version="1.0" encoding="utf-8"?>
<!-- Generator: Adobe Illustrator 17.0.0, SVG Export Plug-In . SVG Version: 6.00 Build 0)  -->
<!DOCTYPE svg PUBLIC "-//W3C//DTD SVG 1.1//EN" "http://www.w3.org/Graphics/SVG/1.1/DTD/svg11.dtd">
<svg version="1.1" id="Layer_1" xmlns="http://www.w3.org/2000/svg" xmlns:xlink="http://www.w3.org/1999/xlink" x="0px" y="0px"
	 width="138.5px" height="369.963px" viewBox="-266.388 396.667 138.5 369.963"
	 enable-background="new -266.388 396.667 138.5 369.963" xml:space="preserve">
<line fill="none" stroke="#636568" stroke-miterlimit="10" x1="-265" y1="400.13" x2="-252" y2="400.13"/>
<g>
	<polygon fill="#636568" points="-253.4,402.03 -252.6,400.13 -253.4,398.23 -249,400.13 	"/>
</g>
<line fill="none" stroke="#636568" stroke-miterlimit="10" x1="-249" y1="405.13" x2="-262" y2="405.13"/>
<g>
	<polygon fill="#636568" points="-260.6,403.23 -261.4,405.13 -260.6,407.03 -265,405.13 	"/>
</g>
<line fill="none" stroke="#636568" stroke-miterlimit="10" x1="-265" y1="413.13" x2="-252" y2="413.13"/>
<g>
	<polygon fill="#636568" points="-253.4,415.03 -252.6,413.13 -253.4,411.23 -249,413.13 	"/>
</g>
<g>
	<polyline fill="none" stroke="#FBFEFF" stroke-miterlimit="10" points="-256,429.63 -261,435.63 -266,429.63 	"/>
	<polyline fill="none" stroke="#FBFEFF" stroke-miterlimit="10" points="-266,423.63 -261,417.63 -256,423.63 	"/>
</g>
<g>
	<g>
		<polygon fill="#D9D9D9" points="-255.6,476.63 -253.2,482.13 -247.2,482.73 -251.7,486.73 -250.4,492.63 -255.6,489.63 
			-260.8,492.63 -259.5,486.73 -264,482.73 -258,482.13 		"/>
	</g>
</g>
<g>
	<g>
		
			<linearGradient id="SVGID_1_" gradientUnits="userSpaceOnUse" x1="-255.6" y1="-1133.1516" x2="-255.6" y2="-1117.1516" gradientTransform="matrix(1 0 0 -1 0 -610.522)">
			<stop  offset="0" style="stop-color:#F9BA00"/>
			<stop  offset="1" style="stop-color:#ECD590"/>
		</linearGradient>
		<polygon fill="url(#SVGID_1_)" points="-255.6,506.63 -253.2,512.13 -247.2,512.73 -251.7,516.73 -250.4,522.63 -255.6,519.63 
			-260.8,522.63 -259.5,516.73 -264,512.73 -258,512.13 		"/>
	</g>
</g>
<polygon opacity="0.75" fill="#52A2CC" enable-background="new    " points="-250.4,556.63 -248.5,554.63 -252.1,544.83 
	-246,538.63 -246.5,537.13 -248,536.63 -254.2,542.73 -264,539.03 -266,541.03 -257.6,546.33 -261.9,550.63 -264.9,550.63 
	-262.4,553.03 -259.9,555.53 -259.9,552.53 -255.7,548.23 "/>
<polygon fill="#7BB236" points="-250.4,586.63 -248.5,584.63 -252.1,574.83 -246,568.63 -246.5,567.13 -248,566.63 -254.2,572.73 
	-264,569.03 -266,571.03 -257.6,576.33 -261.9,580.63 -264.9,580.63 -262.4,583.03 -259.9,585.53 -259.9,582.53 -255.7,578.23 "/>
<g>
	<g>
		<path fill="#FFFFFF" d="M-204.2,398.53c-0.2-0.3-0.5-0.4-0.8-0.4h-15.3l-4.4-1.4c-0.5-0.2-1.1,0.1-1.3,0.6
			c-0.2,0.5,0.1,1.1,0.6,1.3l4.1,1.3l2.8,8.6c0.1,0.4,0.5,0.7,1,0.7h9.6c0.4,0,0.8-0.3,1-0.7l3-9.1
			C-204,399.13-204,398.73-204.2,398.53z M-206.4,400.13l-0.8,2.5h-11.1l-0.8-2.5H-206.4z M-208.7,407.23h-8.1l-0.8-2.5h9.8
			L-208.7,407.23z"/>
		<circle fill="#FFFFFF" cx="-215.9" cy="412.53" r="2"/>
		<circle fill="#FFFFFF" cx="-209.8" cy="412.53" r="2"/>
	</g>
</g>
<g>
	<g>
		<g>
			<circle fill="#FFFFFF" cx="-226" cy="436.63" r="10"/>
		</g>
	</g>
	<circle fill="#D4E8F2" cx="-226" cy="436.63" r="8.1"/>
	<path fill="#EEF6FA" d="M-232.3,437.93c0,2.4,1.1,4.6,2.7,6.1c1.1,0.5,2.3,0.8,3.5,0.8c4.5,0,8.1-3.6,8.1-8.1
		c0-2.4-1.1-4.6-2.7-6.1c-1.1-0.5-2.3-0.8-3.5-0.8C-228.6,429.73-232.3,433.43-232.3,437.93z"/>
	
		<line fill="none" stroke="#52A2CC" stroke-linecap="round" stroke-miterlimit="10" x1="-226" y1="436.63" x2="-230.5" y2="431.93"/>
	
		<line fill="none" stroke="#52A2CC" stroke-linecap="round" stroke-miterlimit="10" x1="-225.1" y1="440.23" x2="-226" y2="436.63"/>
	<circle fill="#52A2CC" cx="-226" cy="436.63" r="0.9"/>
</g>
<polyline fill="none" stroke="#64B5F6" stroke-width="2" stroke-miterlimit="10" points="-216,456.63 -221,462.63 -226,456.63 "/>
<g>
	<polygon fill="#FFFFFF" points="-222.8,477.03 -217.5,476.63 -217.9,481.93 	"/>
	<polygon fill="#FFFFFF" points="-220.7,484.73 -226,485.13 -225.6,479.83 	"/>
</g>
<g>
	<polygon fill="#A0A0A0" points="-222.8,497.03 -217.5,496.63 -217.9,501.93 	"/>
	<polygon fill="#A0A0A0" points="-220.7,504.73 -226,505.13 -225.6,499.83 	"/>
</g>
<g>
	<circle fill="#FFFFFF" cx="-226" cy="726.63" r="40"/>
	<path fill="#F2DBD4" d="M-258.5,726.63c0-18,14.5-32.5,32.5-32.5s32.5,14.5,32.5,32.5s-14.5,32.5-32.5,32.5
		S-258.5,744.63-258.5,726.63z"/>
	<path fill="#FAF1EE" d="M-251,731.63c0,9.7,4.2,18.3,10.9,24.3c4.3,2.1,9,3.2,14.1,3.2c18,0,32.5-14.5,32.5-32.5
		c0-9.7-4.2-18.3-10.9-24.3c-4.3-2.1-9-3.2-14.1-3.2C-236.5,699.13-251,713.63-251,731.63z"/>
	<line fill="none" stroke="#CC7052" stroke-linecap="round" stroke-miterlimit="10" x1="-226" y1="726.63" x2="-244" y2="707.93"/>
	
		<line fill="none" stroke="#CC7052" stroke-linecap="round" stroke-miterlimit="10" x1="-222.3" y1="741.13" x2="-226" y2="726.63"/>
	<circle fill="#CC7052" cx="-226" cy="726.63" r="3.8"/>
</g>
<g>
	<circle fill="#FFFFFF" cx="-226" cy="636.63" r="40"/>
	<path fill="#D4E8F2" d="M-258.5,636.63c0-18,14.5-32.5,32.5-32.5s32.5,14.5,32.5,32.5s-14.5,32.5-32.5,32.5
		S-258.5,654.63-258.5,636.63z"/>
	<path fill="#EEF6FA" d="M-251,641.63c0,9.7,4.2,18.3,10.9,24.3c4.3,2.1,9,3.2,14.1,3.2c18,0,32.5-14.5,32.5-32.5
		c0-9.7-4.2-18.3-10.9-24.3c-4.3-2.1-9-3.2-14.1-3.2C-236.5,609.13-251,623.63-251,641.63z"/>
	<line fill="none" stroke="#52A2CC" stroke-linecap="round" stroke-miterlimit="10" x1="-226" y1="636.63" x2="-244" y2="617.93"/>
	
		<line fill="none" stroke="#52A2CC" stroke-linecap="round" stroke-miterlimit="10" x1="-222.3" y1="651.13" x2="-226" y2="636.63"/>
	<circle fill="#52A2CC" cx="-226" cy="636.63" r="3.8"/>
</g>
<polygon fill="#51505A" points="-218,517.63 -219,516.63 -222,519.63 -225,516.63 -226,517.63 -223,520.63 -226,523.63 -225,524.63 
	-222,521.63 -219,524.63 -218,523.63 -221,520.63 "/>
<g>
	<g>
		<g>
			<rect x="-214" y="548.667" fill="#FFFFFF" width="5" height="5"/>
		</g>
		<g>
			<rect x="-220" y="548.667" fill="#FFFFFF" width="5" height="5"/>
		</g>
		<g>
			<rect x="-226" y="548.667" fill="#FFFFFF" width="5" height="5"/>
		</g>
	</g>
	<g>
		<g>
			<rect x="-214" y="542.667" fill="#FFFFFF" width="5" height="5"/>
		</g>
		<g>
			<rect x="-220" y="542.667" fill="#FFFFFF" width="5" height="5"/>
		</g>
		<g>
			<rect x="-226" y="542.667" fill="#FFFFFF" width="5" height="5"/>
		</g>
	</g>
	<g>
		<g>
			<rect x="-214" y="536.667" fill="#FFFFFF" width="5" height="5"/>
		</g>
		<g>
			<rect x="-220" y="536.667" fill="#FFFFFF" width="5" height="5"/>
		</g>
		<g>
			<rect x="-226" y="536.667" fill="#FFFFFF" width="5" height="5"/>
		</g>
	</g>
</g>
<g>
	<g>
		<g>
			<rect x="-214" y="578.667" fill="#64B5F6" width="5" height="5"/>
		</g>
		<g>
			<rect x="-220" y="578.667" fill="#64B5F6" width="5" height="5"/>
		</g>
		<g>
			<rect x="-226" y="578.667" fill="#64B5F6" width="5" height="5"/>
		</g>
	</g>
	<g>
		<g>
			<rect x="-214" y="572.667" fill="#64B5F6" width="5" height="5"/>
		</g>
		<g>
			<rect x="-220" y="572.667" fill="#64B5F6" width="5" height="5"/>
		</g>
		<g>
			<rect x="-226" y="572.667" fill="#64B5F6" width="5" height="5"/>
		</g>
	</g>
	<g>
		<g>
			<rect x="-214" y="566.667" fill="#64B5F6" width="5" height="5"/>
		</g>
		<g>
			<rect x="-220" y="566.667" fill="#64B5F6" width="5" height="5"/>
		</g>
		<g>
			<rect x="-226" y="566.667" fill="#64B5F6" width="5" height="5"/>
		</g>
	</g>
</g>
<g>
	<g>
		<g>
			<rect x="-184" y="578.667" fill="#64B5F6" width="6" height="4"/>
		</g>
		<g>
			<rect x="-190" y="578.667" fill="#64B5F6" width="6" height="4"/>
		</g>
		<g>
			<rect x="-196" y="578.667" fill="#64B5F6" width="6" height="4"/>
		</g>
	</g>
	<g>
		<g>
			<rect x="-184" y="572.667" fill="#64B5F6" width="6" height="4"/>
		</g>
		<g>
			<rect x="-190" y="572.667" fill="#64B5F6" width="6" height="4"/>
		</g>
		<g>
			<rect x="-196" y="572.667" fill="#64B5F6" width="6" height="4"/>
		</g>
	</g>
	<g>
		<g>
			<rect x="-184" y="566.667" fill="#64B5F6" width="6" height="4"/>
		</g>
		<g>
			<rect x="-190" y="566.667" fill="#64B5F6" width="6" height="4"/>
		</g>
		<g>
			<rect x="-196" y="566.667" fill="#64B5F6" width="6" height="4"/>
		</g>
	</g>
</g>
<g>
	<g>
		<g>
			<rect x="-184" y="548.667" fill="#FFFFFF" width="6" height="4"/>
		</g>
		<g>
			<rect x="-190" y="548.667" fill="#FFFFFF" width="6" height="4"/>
		</g>
		<g>
			<rect x="-196" y="548.667" fill="#FFFFFF" width="6" height="4"/>
		</g>
	</g>
	<g>
		<g>
			<rect x="-184" y="542.667" fill="#FFFFFF" width="6" height="4"/>
		</g>
		<g>
			<rect x="-190" y="542.667" fill="#FFFFFF" width="6" height="4"/>
		</g>
		<g>
			<rect x="-196" y="542.667" fill="#FFFFFF" width="6" height="4"/>
		</g>
	</g>
	<g>
		<g>
			<rect x="-184" y="536.667" fill="#FFFFFF" width="6" height="4"/>
		</g>
		<g>
			<rect x="-190" y="536.667" fill="#FFFFFF" width="6" height="4"/>
		</g>
		<g>
			<rect x="-196" y="536.667" fill="#FFFFFF" width="6" height="4"/>
		</g>
	</g>
</g>
<g>
	<g>
		<line fill="none" stroke="#414042" stroke-width="2" stroke-miterlimit="10" x1="-196" y1="406.667" x2="-182" y2="406.667"/>
		<g>
			<polygon fill="#414042" points="-186.597,412.802 -187.62,411.703 -182.202,406.668 -187.62,401.632 -186.597,400.534 
				-180,406.668 			"/>
		</g>
	</g>
</g>
<path fill="#414042" d="M-131.571,400.489c-0.329-0.637-1.622-2.528-4.772-1.247c-0.353-0.248-0.833-0.526-1.498-0.8
	c-1.883-0.775-5.722-1.775-5.722-1.775s-3.839,1-5.722,1.775c-0.665,0.274-1.145,0.552-1.498,0.8
	c-3.15-1.282-4.443,0.61-4.772,1.247c-1.546,2.992,0.512,9.059,5.107,11.957c1.215,3.81,4.802,2.715,4.802,4.488
	c0,2.133,0.347,9.6-2.082,9.6s0,1.067,0,1.067s2.603,1.067,4.165,1.067c1.562,0,4.165-1.067,4.165-1.067s2.43-1.067,0-1.067
	c-2.43,0-2.082-7.467-2.082-9.6c0-1.773,3.588-0.678,4.802-4.488C-132.084,409.548-130.026,403.48-131.571,400.489z
	 M-153.714,401.486c0.254-0.492,0.753-0.65,1.478-0.487c-0.062,0.333-0.024,0.688,0.144,1.01c0.577,1.109,1.239,3.287,1.241,7.438
	C-153.49,406.903-154.543,403.09-153.714,401.486z M-136.274,409.447c0.002-4.151,0.664-6.329,1.241-7.438
	c0.168-0.322,0.205-0.677,0.144-1.01c0.725-0.163,1.224-0.005,1.478,0.487C-132.583,403.09-133.636,406.903-136.274,409.447z"/>
<g>
	<path fill="#414042" d="M-144.718,471.296v-3.03c-1.74-0.03-3.54-0.569-4.59-1.319l0.72-2.011c1.08,0.721,2.64,1.29,4.32,1.29
		c2.13,0,3.57-1.229,3.57-2.939c0-1.65-1.17-2.67-3.39-3.57c-3.06-1.199-4.95-2.579-4.95-5.189c0-2.49,1.77-4.38,4.53-4.83v-3.029
		h1.859v2.909c1.8,0.061,3.03,0.54,3.9,1.051l-0.75,1.979c-0.63-0.36-1.86-1.02-3.78-1.02c-2.31,0-3.18,1.38-3.18,2.579
		c0,1.561,1.11,2.34,3.72,3.42c3.09,1.261,4.65,2.82,4.65,5.49c0,2.37-1.65,4.59-4.74,5.1v3.12H-144.718z"/>
</g>
<g>
	<g>
		<path fill="#414042" d="M-143.563,493.816c6.989,0,12.675,5.686,12.675,12.675s-5.686,12.675-12.675,12.675
			s-12.675-5.686-12.675-12.675S-150.552,493.816-143.563,493.816 M-143.563,490.816c-8.657,0-15.675,7.018-15.675,15.675
			c0,8.657,7.018,15.675,15.675,15.675c8.657,0,15.675-7.018,15.675-15.675C-127.888,497.834-134.906,490.816-143.563,490.816
			L-143.563,490.816z"/>
	</g>
	
		<line fill="none" stroke="#414042" stroke-width="2" stroke-linecap="round" stroke-miterlimit="10" x1="-143.563" y1="496.81" x2="-143.563" y2="508.797"/>
	<g>
		<circle fill="#414042" cx="-143.563" cy="506.491" r="1.844"/>
	</g>
	<rect x="-147.251" y="486.667" fill="#414042" width="7.377" height="1.844"/>
	
		<rect x="-132.992" y="491.595" transform="matrix(0.7071 0.7071 -0.7071 0.7071 309.9853 236.6645)" fill="#414042" width="4.61" height="1.844"/>
</g>
<polygon opacity="0.75" fill="#FFFFFF" enable-background="new    " points="-250.784,468.667 -248.884,466.667 -252.484,456.867 
	-246.384,450.667 -246.884,449.167 -248.384,448.667 -254.584,454.767 -264.384,451.067 -266.384,453.067 -257.984,458.367 
	-262.284,462.667 -265.284,462.667 -262.784,465.067 -260.284,467.567 -260.284,464.567 -256.084,460.267 "/>
<polygon opacity="0.75" fill="#414042" enable-background="new    " points="-180.784,468.667 -178.884,466.667 -182.484,456.867 
	-176.384,450.667 -176.884,449.167 -178.384,448.667 -184.584,454.767 -194.384,451.067 -196.384,453.067 -187.984,458.367 
	-192.284,462.667 -195.284,462.667 -192.784,465.067 -190.284,467.567 -190.284,464.567 -186.084,460.267 "/>
<polygon opacity="0.75" fill="#FFFFFF" enable-background="new    " points="-196.248,489.667 -195.013,488.367 -197.353,481.997 
	-193.388,477.967 -193.713,476.992 -194.688,476.667 -198.718,480.632 -205.088,478.227 -206.388,479.527 -200.928,482.972 
	-203.723,485.767 -205.673,485.767 -204.048,487.327 -202.423,488.952 -202.423,487.002 -199.693,484.207 "/>
<polygon opacity="0.75" fill="#414042" enable-background="new    " points="-176.248,489.667 -175.013,488.367 -177.353,481.997 
	-173.388,477.967 -173.713,476.992 -174.688,476.667 -178.718,480.632 -185.088,478.227 -186.388,479.527 -180.928,482.972 
	-183.723,485.767 -185.673,485.767 -184.048,487.327 -182.423,488.952 -182.423,487.002 -179.693,484.207 "/>
</svg>
