<svg version="1.1" id="Layer_1" xmlns="http://www.w3.org/2000/svg" xmlns:xlink="http://www.w3.org/1999/xlink" x="0px" y="0px"
	 width="3036px" height="3036px" viewBox="0 0 3036 3036" style="enable-background:new 0 0 3036 3036;" xml:space="preserve">
<style type="text/css">
	.st0{fill:none;}
	.st1{fill:#D6D6D6;}
	.st2{opacity:0.5;fill:url(#New_Pattern);}
</style>
<pattern  width="6" height="6" patternUnits="userSpaceOnUse" id="New_Pattern" viewBox="21.9960938 -28 6 6" style="overflow:visible;">
	<g>
		<polygon class="st0" points="21.9960938,-28 27.9960938,-28 27.9960938,-22 21.9960938,-22 		"/>
		<g>
			<polygon class="st1" points="24.0001221,-0.0000542 24.0001221,-0.706791 49.2934074,-25.9999466 50.000042,-25.9999466 
				50.000042,-25.2925644 24.7076874,-0.0000542 			"/>
		</g>
		<g>
			<polygon class="st1" points="18.0001221,-0.0000542 18.0001221,-0.706791 43.2934074,-25.9999466 44.000042,-25.9999466 
				44.000042,-25.2925644 18.7076874,-0.0000542 			"/>
		</g>
		<g>
			<polygon class="st1" points="12.0001221,-0.0000542 12.0001221,-0.706791 37.2934074,-25.9999466 38.000042,-25.9999466 
				38.000042,-25.2925644 12.7076883,-0.0000542 			"/>
		</g>
		<g>
			<polygon class="st1" points="6.0001221,-0.0000542 6.0001221,-0.706791 31.2934093,-25.9999466 32.000042,-25.9999466 
				32.000042,-25.2925644 6.7076883,-0.0000542 			"/>
		</g>
		<g>
			<polygon class="st1" points="0.0001219,-0.0000542 0.0001219,-0.706791 25.2934093,-25.9999466 26.0000401,-25.9999466 
				26.0000401,-25.2925644 0.7076883,-0.0000542 			"/>
		</g>
		<g>
			<polygon class="st1" points="24.0001221,-6.0000544 24.0001221,-6.7067909 49.2934074,-31.9999466 50.000042,-31.9999466 
				50.000042,-31.2925644 24.7076874,-6.0000544 			"/>
		</g>
		<g>
			<polygon class="st1" points="18.0001221,-6.0000544 18.0001221,-6.7067909 43.2934074,-31.9999466 44.000042,-31.9999466 
				44.000042,-31.2925644 18.7076874,-6.0000544 			"/>
		</g>
		<g>
			<polygon class="st1" points="12.0001221,-6.0000544 12.0001221,-6.7067909 37.2934074,-31.9999466 38.000042,-31.9999466 
				38.000042,-31.2925644 12.7076883,-6.0000544 			"/>
		</g>
		<g>
			<polygon class="st1" points="6.0001221,-6.0000544 6.0001221,-6.7067909 31.2934093,-31.9999466 32.000042,-31.9999466 
				32.000042,-31.2925644 6.7076883,-6.0000544 			"/>
		</g>
		<g>
			<polygon class="st1" points="0.0001219,-6.0000544 0.0001219,-6.7067909 25.2934093,-31.9999466 26.0000401,-31.9999466 
				26.0000401,-31.2925644 0.7076883,-6.0000544 			"/>
		</g>
		<g>
			<polygon class="st1" points="24.0001221,-12.0000544 24.0001221,-12.7067909 49.2934074,-37.9999466 50.000042,-37.9999466 
				50.000042,-37.2925644 24.7076874,-12.0000544 			"/>
		</g>
		<g>
			<polygon class="st1" points="18.0001221,-12.0000544 18.0001221,-12.7067909 43.2934074,-37.9999466 44.000042,-37.9999466 
				44.000042,-37.2925644 18.7076874,-12.0000544 			"/>
		</g>
		<g>
			<polygon class="st1" points="12.0001221,-12.0000544 12.0001221,-12.7067909 37.2934074,-37.9999466 38.000042,-37.9999466 
				38.000042,-37.2925644 12.7076883,-12.0000544 			"/>
			<polygon class="st1" points="27.9941673,-21.9980755 27.2873154,-21.9980755 27.9941673,-22.7010212 			"/>
		</g>
		<g>
			<polygon class="st1" points="6.0001221,-12.0000544 6.0001221,-12.7067909 31.2934093,-37.9999466 32.000042,-37.9999466 
				32.000042,-37.2925644 6.7076883,-12.0000544 			"/>
		</g>
		<g>
			<polygon class="st1" points="0.0001219,-12.0000544 0.0001219,-12.7067909 25.2934093,-37.9999466 26.0000401,-37.9999466 
				26.0000401,-37.2925644 0.7076883,-12.0000544 			"/>
		</g>
		<g>
			<polygon class="st1" points="24.0001221,-18.0000534 24.0001221,-18.7067909 49.2934074,-43.9999466 50.000042,-43.9999466 
				50.000042,-43.2925644 24.7076874,-18.0000534 			"/>
		</g>
		<g>
			<polygon class="st1" points="18.0001221,-18.0000534 18.0001221,-18.7067909 43.2934074,-43.9999466 44.000042,-43.9999466 
				44.000042,-43.2925644 18.7076874,-18.0000534 			"/>
		</g>
		<g>
			<polygon class="st1" points="12.0001221,-18.0000534 12.0001221,-18.7067909 37.2934074,-43.9999466 38.000042,-43.9999466 
				38.000042,-43.2925644 12.7076883,-18.0000534 			"/>
			<polygon class="st1" points="27.9941673,-27.9980755 27.2873154,-27.9980755 27.9941673,-28.7010212 			"/>
		</g>
		<g>
			<polygon class="st1" points="6.0001221,-18.0000534 6.0001221,-18.7067909 31.2934093,-43.9999466 32.000042,-43.9999466 
				32.000042,-43.2925644 6.7076883,-18.0000534 			"/>
		</g>
		<g>
			<polygon class="st1" points="0.0001219,-18.0000534 0.0001219,-18.7067909 25.2934093,-43.9999466 26.0000401,-43.9999466 
				26.0000401,-43.2925644 0.7076883,-18.0000534 			"/>
		</g>
		<g>
			<polygon class="st1" points="24.0001221,-24.0000534 24.0001221,-24.7067909 49.2934074,-49.9999466 50.000042,-49.9999466 
				50.000042,-49.2925644 24.7076874,-24.0000534 			"/>
		</g>
		<g>
			<polygon class="st1" points="18.0001221,-24.0000534 18.0001221,-24.7067909 43.2934074,-49.9999466 44.000042,-49.9999466 
				44.000042,-49.2925644 18.7076874,-24.0000534 			"/>
		</g>
		<g>
			<polygon class="st1" points="12.0001221,-24.0000534 12.0001221,-24.7067909 37.2934074,-49.9999466 38.000042,-49.9999466 
				38.000042,-49.2925644 12.7076883,-24.0000534 			"/>
		</g>
		<g>
			<polygon class="st1" points="6.0001221,-24.0000534 6.0001221,-24.7067909 31.2934093,-49.9999466 32.000042,-49.9999466 
				32.000042,-49.2925644 6.7076883,-24.0000534 			"/>
		</g>
		<g>
			<polygon class="st1" points="0.0001219,-24.0000534 0.0001219,-24.7067909 25.2934093,-49.9999466 26.0000401,-49.9999466 
				26.0000401,-49.2925644 0.7076883,-24.0000534 			"/>
		</g>
	</g>
</pattern>
<rect class="st2" width="3036" height="3036"/>
</svg>
