<?xml version="1.0" encoding="utf-8"?>
<!-- Generator: Adobe Illustrator 18.1.1, SVG Export Plug-In . SVG Version: 6.00 Build 0)  -->
<svg version="1.1" id="Layer_1" xmlns="http://www.w3.org/2000/svg" xmlns:xlink="http://www.w3.org/1999/xlink" x="0px" y="0px"
	 width="80px" height="370px" viewBox="-559 316 80 370" enable-background="new -559 316 80 370" xml:space="preserve">
<line fill="none" stroke="#636568" stroke-miterlimit="10" x1="-558" y1="319.5" x2="-545" y2="319.5"/>
<g>
	<polygon fill="#636568" points="-546.4,321.4 -545.6,319.5 -546.4,317.6 -542,319.5 	"/>
</g>
<line fill="none" stroke="#636568" stroke-miterlimit="10" x1="-542" y1="324.5" x2="-555" y2="324.5"/>
<g>
	<polygon fill="#636568" points="-553.6,322.6 -554.4,324.5 -553.6,326.4 -558,324.5 	"/>
</g>
<line fill="none" stroke="#636568" stroke-miterlimit="10" x1="-558" y1="332.5" x2="-545" y2="332.5"/>
<g>
	<polygon fill="#636568" points="-546.4,334.4 -545.6,332.5 -546.4,330.6 -542,332.5 	"/>
</g>
<g>
	<polyline fill="none" stroke="#FBFEFF" stroke-miterlimit="10" points="-549,349 -554,355 -559,349 	"/>
	<polyline fill="none" stroke="#FBFEFF" stroke-miterlimit="10" points="-559,343 -554,337 -549,343 	"/>
</g>
<g>
	<g>
		<rect x="-551" y="368" fill="#FFFFFF" width="4" height="20"/>
	</g>
	<g>
		<rect x="-559" y="376" fill="#FFFFFF" width="20" height="4"/>
	</g>
</g>
<g>
	<g>
		<polygon fill="#D9D9D9" points="-548.6,396 -546.2,401.5 -540.2,402.1 -544.7,406.1 -543.4,412 -548.6,409 -553.8,412 
			-552.5,406.1 -557,402.1 -551,401.5 		"/>
	</g>
</g>
<g>
	<g>
		
			<linearGradient id="SVGID_1_" gradientUnits="userSpaceOnUse" x1="-548.5885" y1="-631.522" x2="-548.5885" y2="-615.522" gradientTransform="matrix(1 0 0 -1 0 -189.522)">
			<stop  offset="0" style="stop-color:#F9BA00"/>
			<stop  offset="1" style="stop-color:#ECD590"/>
		</linearGradient>
		<polygon fill="url(#SVGID_1_)" points="-548.6,426 -546.2,431.5 -540.2,432.1 -544.7,436.1 -543.4,442 -548.6,439 -553.8,442 
			-552.5,436.1 -557,432.1 -551,431.5 		"/>
	</g>
</g>
<polygon opacity="0.75" fill="#52A2CC" enable-background="new    " points="-543.4,476 -541.5,474 -545.1,464.2 -539,458 
	-539.5,456.5 -541,456 -547.2,462.1 -557,458.4 -559,460.4 -550.6,465.7 -554.9,470 -557.9,470 -555.4,472.4 -552.9,474.9 
	-552.9,471.9 -548.7,467.6 "/>
<polygon fill="#7BB236" points="-543.4,506 -541.5,504 -545.1,494.2 -539,488 -539.5,486.5 -541,486 -547.2,492.1 -557,488.4 
	-559,490.4 -550.6,495.7 -554.9,500 -557.9,500 -555.4,502.4 -552.9,504.9 -552.9,501.9 -548.7,497.6 "/>
<g>
	<g>
		<path fill="#FFFFFF" d="M-497.2,317.9c-0.2-0.3-0.5-0.4-0.8-0.4h-15.3l-4.4-1.4c-0.5-0.2-1.1,0.1-1.3,0.6
			c-0.2,0.5,0.1,1.1,0.6,1.3l4.1,1.3l2.8,8.6c0.1,0.4,0.5,0.7,1,0.7h9.6c0.4,0,0.8-0.3,1-0.7l3-9.1
			C-497,318.5-497,318.1-497.2,317.9z M-499.4,319.5l-0.8,2.5h-11.1l-0.8-2.5H-499.4z M-501.7,326.6h-8.1l-0.8-2.5h9.8L-501.7,326.6
			z"/>
		<circle fill="#FFFFFF" cx="-508.9" cy="331.9" r="2"/>
		<circle fill="#FFFFFF" cx="-502.8" cy="331.9" r="2"/>
	</g>
</g>
<g>
	<g>
		<g>
			<circle fill="#FFFFFF" cx="-519" cy="356" r="10"/>
		</g>
	</g>
	<circle fill="#D4E8F2" cx="-519" cy="356" r="8.1"/>
	<path fill="#EEF6FA" d="M-525.3,357.3c0,2.4,1.1,4.6,2.7,6.1c1.1,0.5,2.3,0.8,3.5,0.8c4.5,0,8.1-3.6,8.1-8.1c0-2.4-1.1-4.6-2.7-6.1
		c-1.1-0.5-2.3-0.8-3.5-0.8C-521.6,349.1-525.3,352.8-525.3,357.3z"/>
	<line fill="none" stroke="#52A2CC" stroke-linecap="round" stroke-miterlimit="10" x1="-519" y1="356" x2="-523.5" y2="351.3"/>
	<line fill="none" stroke="#52A2CC" stroke-linecap="round" stroke-miterlimit="10" x1="-518.1" y1="359.6" x2="-519" y2="356"/>
	<circle fill="#52A2CC" cx="-519" cy="356" r="0.9"/>
</g>
<polyline fill="none" stroke="#64B5F6" stroke-width="2" stroke-miterlimit="10" points="-509,376 -514,382 -519,376 "/>
<g>
	<polygon fill="#FFFFFF" points="-515.8,396.4 -510.5,396 -510.9,401.3 	"/>
	<polygon fill="#FFFFFF" points="-513.7,404.1 -519,404.5 -518.6,399.2 	"/>
</g>
<g>
	<polygon fill="#A0A0A0" points="-515.8,416.4 -510.5,416 -510.9,421.3 	"/>
	<polygon fill="#A0A0A0" points="-513.7,424.1 -519,424.5 -518.6,419.2 	"/>
</g>
<g>
	<circle fill="#FFFFFF" cx="-519" cy="646" r="40"/>
	<path fill="#F2DBD4" d="M-551.5,646c0-18,14.5-32.5,32.5-32.5s32.5,14.5,32.5,32.5s-14.5,32.5-32.5,32.5S-551.5,664-551.5,646z"/>
	<path fill="#FAF1EE" d="M-544,651c0,9.7,4.2,18.3,10.9,24.3c4.3,2.1,9,3.2,14.1,3.2c18,0,32.5-14.5,32.5-32.5
		c0-9.7-4.2-18.3-10.9-24.3c-4.3-2.1-9-3.2-14.1-3.2C-529.5,618.5-544,633-544,651z"/>
	<line fill="none" stroke="#CC7052" stroke-linecap="round" stroke-miterlimit="10" x1="-519" y1="646" x2="-537" y2="627.3"/>
	<line fill="none" stroke="#CC7052" stroke-linecap="round" stroke-miterlimit="10" x1="-515.3" y1="660.5" x2="-519" y2="646"/>
	<circle fill="#CC7052" cx="-519" cy="646" r="3.8"/>
</g>
<g>
	<circle fill="#FFFFFF" cx="-519" cy="556" r="40"/>
	<path fill="#D4E8F2" d="M-551.5,556c0-18,14.5-32.5,32.5-32.5s32.5,14.5,32.5,32.5s-14.5,32.5-32.5,32.5S-551.5,574-551.5,556z"/>
	<path fill="#EEF6FA" d="M-544,561c0,9.7,4.2,18.3,10.9,24.3c4.3,2.1,9,3.2,14.1,3.2c18,0,32.5-14.5,32.5-32.5
		c0-9.7-4.2-18.3-10.9-24.3c-4.3-2.1-9-3.2-14.1-3.2C-529.5,528.5-544,543-544,561z"/>
	<line fill="none" stroke="#52A2CC" stroke-linecap="round" stroke-miterlimit="10" x1="-519" y1="556" x2="-537" y2="537.3"/>
	<line fill="none" stroke="#52A2CC" stroke-linecap="round" stroke-miterlimit="10" x1="-515.3" y1="570.5" x2="-519" y2="556"/>
	<circle fill="#52A2CC" cx="-519" cy="556" r="3.8"/>
</g>
<polygon fill="#51505A" points="-511,437 -512,436 -515,439 -518,436 -519,437 -516,440 -519,443 -518,444 -515,441 -512,444 
	-511,443 -514,440 "/>
</svg>
