<?xml version="1.0" encoding="utf-8"?>
<!-- Generator: Adobe Illustrator 17.0.0, SVG Export Plug-In . SVG Version: 6.00 Build 0)  -->
<!DOCTYPE svg PUBLIC "-//W3C//DTD SVG 1.1//EN" "http://www.w3.org/Graphics/SVG/1.1/DTD/svg11.dtd">
<svg version="1.1" id="Layer_1" xmlns="http://www.w3.org/2000/svg" xmlns:xlink="http://www.w3.org/1999/xlink" x="0px" y="0px"
	 width="53.5px" height="133.01px" viewBox="0 0 53.5 133.01" enable-background="new 0 0 53.5 133.01" xml:space="preserve">
<path fill="#4FB1E4" d="M14,2h-1V1c0-0.553-0.447-1-1-1s-1,0.447-1,1v1H5V1c0-0.553-0.447-1-1-1S3,0.447,3,1v1H2C0.9,2,0,2.9,0,4v10
	c0,1.1,0.9,2,2,2h12c1.1,0,2-0.9,2-2V4C16,2.9,15.1,2,14,2z M13,14H3c-0.55,0-1-0.45-1-1s0.45-1,1-1h10c0.55,0,1,0.45,1,1
	S13.55,14,13,14z M13,10H3c-0.55,0-1-0.45-1-1s0.45-1,1-1h10c0.55,0,1,0.45,1,1S13.55,10,13,10z M13,6H3C2.45,6,2,5.55,2,5
	s0.45-1,1-1h10c0.55,0,1,0.45,1,1S13.55,6,13,6z"/>
<polygon fill="#51505A" points="8,61 7,60 4,63 1,60 0,61 3,64 0,67 1,68 4,65 7,68 8,67 5,64 "/>
<polygon fill="#FFFFFF" points="0,91.412 4.588,96 0.001,100.588 1.413,101.999 5.999,97.411 10.587,102 11.999,100.589 7.411,96 
	12,91.411 10.589,90 5.999,94.589 1.411,90.001 "/>
<path opacity="0.5" fill="#FFFFFF" enable-background="new    " d="M14,32h-1v-1c0-0.553-0.447-1-1-1s-1,0.447-1,1v1H5v-1
	c0-0.553-0.447-1-1-1s-1,0.447-1,1v1H2c-1.1,0-2,0.9-2,2v10c0,1.1,0.9,2,2,2h12c1.1,0,2-0.9,2-2V34C16,32.9,15.1,32,14,32z M13,44H3
	c-0.55,0-1-0.45-1-1s0.45-1,1-1h10c0.55,0,1,0.45,1,1S13.55,44,13,44z M13,40H3c-0.55,0-1-0.45-1-1s0.45-1,1-1h10c0.55,0,1,0.45,1,1
	S13.55,40,13,40z M13,36H3c-0.55,0-1-0.45-1-1s0.45-1,1-1h10c0.55,0,1,0.45,1,1S13.55,36,13,36z"/>
<polygon fill="#2E2E33" points="13.51,123.111 11.389,120.99 7.5,124.879 3.611,120.99 1.49,123.111 5.379,127 1.49,130.889 
	3.611,133.01 7.5,129.121 11.389,133.01 13.51,130.889 9.621,127 "/>
<polygon opacity="0.75" fill="#70ACCC" points="45.556,20 47.538,18.012 43.875,8.192 50,2.048 49.522,0.479 47.958,0 41.832,6.143 
	31.982,2.409 30,4.397 38.409,9.713 34.144,14.005 31.142,14.005 33.603,16.458 36.062,18.919 36.065,15.906 40.329,11.628 "/>
<polygon fill="#7BB236" points="45.556,50 47.538,48.012 43.875,38.192 50,32.048 49.522,30.479 47.958,30 41.832,36.143 
	31.982,32.409 30,34.397 38.409,39.713 34.144,44.005 31.142,44.005 33.603,46.458 36.062,48.919 36.065,45.906 40.329,41.628 "/>
<polygon fill="#FFFFFF" points="45.556,80 47.538,78.012 43.875,68.192 50,62.048 49.522,60.479 47.958,60 41.832,66.143 
	31.982,62.409 30,64.397 38.409,69.713 34.144,74.005 31.142,74.005 33.603,76.458 36.062,78.919 36.065,75.906 40.329,71.628 "/>
<g>
	<g>
		<line fill="none" stroke="#636467" stroke-miterlimit="10" x1="34.5" y1="89.505" x2="41.5" y2="89.505"/>
		<g>
			<polygon fill="#636467" points="45,90 40.025,92.033 41.206,90 40.025,87.968 			"/>
		</g>
	</g>
</g>
</svg>
