<svg version="1.1" id="Layer_1" xmlns="http://www.w3.org/2000/svg" xmlns:xlink="http://www.w3.org/1999/xlink" x="0px" y="0px"
	 width="26px" height="133.01px" viewBox="0 0 26 133.01" enable-background="new 0 0 26 133.01" xml:space="preserve">
<path fill="#4FB1E4" d="M14,2h-1V1c0-0.553-0.447-1-1-1s-1,0.447-1,1v1H5V1c0-0.553-0.447-1-1-1S3,0.447,3,1v1H2C0.9,2,0,2.9,0,4v10
	c0,1.1,0.9,2,2,2h12c1.1,0,2-0.9,2-2V4C16,2.9,15.1,2,14,2z M13,14H3c-0.55,0-1-0.45-1-1s0.45-1,1-1h10c0.55,0,1,0.45,1,1
	S13.55,14,13,14z M13,10H3c-0.55,0-1-0.45-1-1s0.45-1,1-1h10c0.55,0,1,0.45,1,1S13.55,10,13,10z M13,6H3C2.45,6,2,5.55,2,5
	s0.45-1,1-1h10c0.55,0,1,0.45,1,1S13.55,6,13,6z"/>
<polygon fill="#51505A" points="8,61 7,60 4,63 1,60 0,61 3,64 0,67 1,68 4,65 7,68 8,67 5,64 "/>
<polygon fill="$nemo-color-LightPoint" points="0,91.412 4.588,96 0.001,100.588 1.413,101.999 5.999,97.411 10.587,102 11.999,100.589 7.411,96
	12,91.411 10.589,90 5.999,94.589 1.411,90.001 "/>
<path opacity="0.5" fill="$nemo-color-LightPoint" d="M14,32h-1v-1c0-0.553-0.447-1-1-1s-1,0.447-1,1v1H5v-1c0-0.553-0.447-1-1-1s-1,0.447-1,1v1H2
	c-1.1,0-2,0.9-2,2v10c0,1.1,0.9,2,2,2h12c1.1,0,2-0.9,2-2V34C16,32.9,15.1,32,14,32z M13,44H3c-0.55,0-1-0.45-1-1s0.45-1,1-1h10
	c0.55,0,1,0.45,1,1S13.55,44,13,44z M13,40H3c-0.55,0-1-0.45-1-1s0.45-1,1-1h10c0.55,0,1,0.45,1,1S13.55,40,13,40z M13,36H3
	c-0.55,0-1-0.45-1-1s0.45-1,1-1h10c0.55,0,1,0.45,1,1S13.55,36,13,36z"/>
<polygon fill="#2E2E33" points="13.51,123.111 11.389,120.99 7.5,124.879 3.611,120.99 1.49,123.111 5.379,127 1.49,130.889 
	3.611,133.01 7.5,129.121 11.389,133.01 13.51,130.889 9.621,127 "/>
</svg>
