<?xml version="1.0" encoding="utf-8"?>
<!-- Generator: Adobe Illustrator 18.1.0, SVG Export Plug-In . SVG Version: 6.00 Build 0)  -->
<svg version="1.1" id="Layer_1" xmlns="http://www.w3.org/2000/svg" xmlns:xlink="http://www.w3.org/1999/xlink" x="0px" y="0px"
	 width="53.5px" height="133px" viewBox="-572 535 53.5 133" enable-background="new -572 535 53.5 133" xml:space="preserve">
<path fill="#4FB1E4" d="M-558,537h-1v-1c0-0.6-0.4-1-1-1s-1,0.4-1,1v1h-6v-1c0-0.6-0.4-1-1-1s-1,0.4-1,1v1h-1c-1.1,0-2,0.9-2,2v10
	c0,1.1,0.9,2,2,2h12c1.1,0,2-0.9,2-2v-10C-556,537.9-556.9,537-558,537z M-559,549h-10c-0.5,0-1-0.5-1-1s0.5-1,1-1h10
	c0.5,0,1,0.5,1,1S-558.5,549-559,549z M-559,545h-10c-0.5,0-1-0.5-1-1s0.5-1,1-1h10c0.5,0,1,0.5,1,1S-558.5,545-559,545z M-559,541
	h-10c-0.5,0-1-0.5-1-1s0.5-1,1-1h10c0.5,0,1,0.5,1,1S-558.5,541-559,541z"/>
<polygon fill="#51505A" points="-564,596 -565,595 -568,598 -571,595 -572,596 -569,599 -572,602 -571,603 -568,600 -565,603 
	-564,602 -567,599 "/>
<polygon fill="#FFFFFF" points="-572,626.4 -567.4,631 -572,635.6 -570.6,637 -566,632.4 -561.4,637 -560,635.6 -564.6,631 
	-560,626.4 -561.4,625 -566,629.6 -570.6,625 "/>
<path opacity="0.5" fill="#FFFFFF" enable-background="new    " d="M-558,567h-1v-1c0-0.6-0.4-1-1-1s-1,0.4-1,1v1h-6v-1
	c0-0.6-0.4-1-1-1s-1,0.4-1,1v1h-1c-1.1,0-2,0.9-2,2v10c0,1.1,0.9,2,2,2h12c1.1,0,2-0.9,2-2v-10C-556,567.9-556.9,567-558,567z
	 M-559,579h-10c-0.5,0-1-0.5-1-1s0.5-1,1-1h10c0.5,0,1,0.5,1,1S-558.5,579-559,579z M-559,575h-10c-0.5,0-1-0.5-1-1s0.5-1,1-1h10
	c0.5,0,1,0.5,1,1S-558.5,575-559,575z M-559,571h-10c-0.5,0-1-0.5-1-1s0.5-1,1-1h10c0.5,0,1,0.5,1,1S-558.5,571-559,571z"/>
<polygon fill="#2E2E33" points="-558.5,658.1 -560.6,656 -564.5,659.9 -568.4,656 -570.5,658.1 -566.6,662 -570.5,665.9 -568.4,668 
	-564.5,664.1 -560.6,668 -558.5,665.9 -562.4,662 "/>
<polygon opacity="0.75" fill="#70ACCC" enable-background="new    " points="-526.4,555 -524.5,553 -528.1,543.2 -522,537 
	-522.5,535.5 -524,535 -530.2,541.1 -540,537.4 -542,539.4 -533.6,544.7 -537.9,549 -540.9,549 -538.4,551.4 -535.9,553.9 
	-535.9,550.9 -531.7,546.6 "/>
<polygon fill="#7BB236" points="-526.4,585 -524.5,583 -528.1,573.2 -522,567 -522.5,565.5 -524,565 -530.2,571.1 -540,567.4 
	-542,569.4 -533.6,574.7 -537.9,579 -540.9,579 -538.4,581.4 -535.9,583.9 -535.9,580.9 -531.7,576.6 "/>
<polygon fill="#FFFFFF" points="-526.4,615 -524.5,613 -528.1,603.2 -522,597 -522.5,595.5 -524,595 -530.2,601.1 -540,597.4 
	-542,599.4 -533.6,604.7 -537.9,609 -540.9,609 -538.4,611.4 -535.9,613.9 -535.9,610.9 -531.7,606.6 "/>
<g>
	<g>
		<line fill="none" stroke="#636467" stroke-miterlimit="10" x1="-537.5" y1="624.5" x2="-530.5" y2="624.5"/>
		<g>
			<polygon fill="#636467" points="-527,624.5 -532,626.5 -530.8,624.5 -532,622.5 			"/>
		</g>
	</g>
</g>
<g>
	<g>
		<line fill="none" stroke="#80B5D5" stroke-width="2" stroke-miterlimit="10" x1="-537" y1="637" x2="-527" y2="637"/>
	</g>
</g>
<g>
	<g>
		<line fill="none" stroke="#80B5D5" stroke-width="2" stroke-miterlimit="10" x1="-537" y1="662" x2="-527" y2="662"/>
		<line fill="none" stroke="#80B5D5" stroke-width="2" stroke-miterlimit="10" x1="-532" y1="657" x2="-532" y2="667"/>
	</g>
</g>
</svg>
