<svg id="Layer_8" data-name="Layer 8" xmlns="http://www.w3.org/2000/svg" viewBox="0 0 410.39 21.15" width="410.39" height="21.15"><defs><style>.cls-1{fill:#969599;}</style></defs><title>hotels_results_services_sprite</title><path class="cls-1" d="M4391.94,4572.93H4386v-1.25l2.13-2.15q0.94-1,1.23-1.34a2.94,2.94,0,0,0,.42-0.69,1.77,1.77,0,0,0,.13-0.66,1,1,0,0,0-.28-0.76,1.09,1.09,0,0,0-.75-0.25,2.16,2.16,0,0,0-1,.23,4.93,4.93,0,0,0-1,.64l-1-1.15a6.35,6.35,0,0,1,1-.75,3.81,3.81,0,0,1,.9-0.34,4.61,4.61,0,0,1,1.09-.12,3.22,3.22,0,0,1,1.4.29,2.23,2.23,0,0,1,.94.81,2.15,2.15,0,0,1,.34,1.19,2.92,2.92,0,0,1-.21,1.1,4.22,4.22,0,0,1-.64,1.05,15.56,15.56,0,0,1-1.52,1.54l-1.09,1v0.08h3.69v1.51Z" transform="translate(-4180 -4557.85)"/><path class="cls-1" d="M4398.91,4571.18h-1v1.76h-1.75v-1.76h-3.62v-1.25l3.71-5.47h1.65v5.32h1v1.39Zm-2.77-1.39v-1.44q0-.36,0-1t0-.79h0a6.45,6.45,0,0,1-.52.93l-1.55,2.35h2Z" transform="translate(-4180 -4557.85)"/><path class="cls-1" d="M4406,4572.93h-1.77v-3.78q0-1.4-1-1.4a1.19,1.19,0,0,0-1.07.5,3.08,3.08,0,0,0-.33,1.63v3H4400v-9h1.77v1.84q0,0.21,0,1l0,0.52h0.09a2,2,0,0,1,1.88-1,2.29,2.29,0,0,1,1.73.61,2.44,2.44,0,0,1,.59,1.76v4.22Z" transform="translate(-4180 -4557.85)"/><path class="cls-1" d="M4485.66,4570.36a2.25,2.25,0,0,1-.85,1.85,3.68,3.68,0,0,1-2.36.68,5.53,5.53,0,0,1-2.46-.52v-1.71a10.06,10.06,0,0,0,1.49.55,4.38,4.38,0,0,0,1.11.16,1.58,1.58,0,0,0,.93-0.23,0.79,0.79,0,0,0,.32-0.69,0.76,0.76,0,0,0-.14-0.45,1.59,1.59,0,0,0-.42-0.38,10.75,10.75,0,0,0-1.13-.59,5.3,5.3,0,0,1-1.19-.72,2.7,2.7,0,0,1-.64-0.8,2.29,2.29,0,0,1-.24-1.07,2.25,2.25,0,0,1,.78-1.81,3.25,3.25,0,0,1,2.16-.66,5.11,5.11,0,0,1,1.29.16,8.88,8.88,0,0,1,1.29.45L4485,4566a8.71,8.71,0,0,0-1.15-.4,3.69,3.69,0,0,0-.89-0.11,1.19,1.19,0,0,0-.8.24,0.8,0.8,0,0,0-.28.64,0.79,0.79,0,0,0,.11.42,1.24,1.24,0,0,0,.36.35,11.12,11.12,0,0,0,1.17.61,4.65,4.65,0,0,1,1.67,1.17A2.28,2.28,0,0,1,4485.66,4570.36Z" transform="translate(-4180 -4557.85)"/><path class="cls-1" d="M4492.51,4566.79a2.66,2.66,0,0,1-.88,2.15,3.75,3.75,0,0,1-2.49.74h-0.79v3.09h-1.84v-8.69h2.78a3.69,3.69,0,0,1,2.4.68A2.48,2.48,0,0,1,4492.51,4566.79Zm-4.16,1.38H4489a2,2,0,0,0,1.27-.34,1.18,1.18,0,0,0,.42-1,1.21,1.21,0,0,0-.35-1,1.66,1.66,0,0,0-1.11-.31h-0.84v2.58Z" transform="translate(-4180 -4557.85)"/><path class="cls-1" d="M4498,4572.77l-0.63-2.07h-3.17l-0.63,2.07h-2l3.07-8.73h2.25l3.08,8.73h-2Zm-1.07-3.61-1-3.18q-0.11-.37-0.16-0.58-0.2.76-1.12,3.76h2.26Z" transform="translate(-4180 -4557.85)"/><path class="cls-1" d="M4524,4579h-8.85l-3.16-15.34h15.17Zm-8-.77h7.15l2.84-13.8h-12.83Z" transform="translate(-4180 -4557.85)"/><polygon class="cls-1" points="342.16 20.38 335.58 20.7 334.58 13.82 343.62 13.82 342.16 20.38"/><polygon class="cls-1" points="337.27 20.82 336.28 20.65 339.82 0 344.89 2.39 344.46 3.29 340.58 1.47 337.27 20.82"/><polygon class="cls-1" points="247.15 11.15 246.74 10.68 253.53 4.43 253.94 4.9 247.15 11.15"/><path class="cls-1" d="M4430.74,4565.28a1.27,1.27,0,0,1-.09,1.76,1.2,1.2,0,0,1-1.72-.09,1.27,1.27,0,0,1,.09-1.76,1.2,1.2,0,0,1,1.72.09m0.23-.21a1.5,1.5,0,0,0-2.15-.12,1.58,1.58,0,0,0-.11,2.2,1.5,1.5,0,0,0,2.15.12,1.58,1.58,0,0,0,.11-2.2h0Z" transform="translate(-4180 -4557.85)"/><polygon class="cls-1" points="251.35 6.86 251.59 3.94 252.2 4 252.02 6.25 254.23 6.3 254.22 6.92 251.35 6.86"/><polygon class="cls-1" points="246.89 11.22 247 10.61 256 12.23 255.89 12.84 246.89 11.22"/><path class="cls-1" d="M4432,4569.67a1.22,1.22,0,0,1-1.41,1,1.24,1.24,0,0,1-1-1.44,1.22,1.22,0,0,1,1.41-1,1.24,1.24,0,0,1,1,1.44m0.3,0.05a1.55,1.55,0,0,0-1.24-1.8,1.53,1.53,0,0,0-1.77,1.26,1.55,1.55,0,0,0,1.24,1.8,1.53,1.53,0,0,0,1.77-1.26h0Z" transform="translate(-4180 -4557.85)"/><polygon class="cls-1" points="252.79 11.97 255.18 10.37 255.52 10.89 253.66 12.13 254.99 13.94 254.5 14.31 252.79 11.97"/><polygon class="cls-1" points="246.68 11.06 247.21 10.77 251.5 19.02 250.97 19.31 246.68 11.06"/><path class="cls-1" d="M4429.34,4573.37a1.21,1.21,0,0,1-1.65-.51,1.26,1.26,0,0,1,.5-1.68,1.21,1.21,0,0,1,1.65.51,1.26,1.26,0,0,1-.5,1.68m0.14,0.27a1.57,1.57,0,0,0,.63-2.11,1.51,1.51,0,0,0-2.06-.64,1.57,1.57,0,0,0-.63,2.11,1.51,1.51,0,0,0,2.06.64h0Z" transform="translate(-4180 -4557.85)"/><polygon class="cls-1" points="249.73 16.27 252.44 17.21 252.24 17.8 250.15 17.07 249.56 19.25 248.98 19.09 249.73 16.27"/><polygon class="cls-1" points="246.67 10.79 247.22 11.04 243.5 19.57 242.95 19.32 246.67 10.79"/><path class="cls-1" d="M4424.87,4573.53a1.26,1.26,0,0,1-.62-1.64,1.21,1.21,0,0,1,1.61-.63,1.26,1.26,0,0,1,.62,1.64,1.21,1.21,0,0,1-1.61.63m-0.12.28a1.51,1.51,0,0,0,2-.79,1.57,1.57,0,0,0-.77-2.06,1.51,1.51,0,0,0-2,.79,1.57,1.57,0,0,0,.77,2.06h0Z" transform="translate(-4180 -4557.85)"/><polygon class="cls-1" points="244.53 16.46 245.47 19.21 244.9 19.42 244.17 17.29 242.13 18.16 241.89 17.59 244.53 16.46"/><polygon class="cls-1" points="246.87 10.61 247.02 11.22 238.15 13.48 238 12.87 246.87 10.61"/><path class="cls-1" d="M4422,4570a1.25,1.25,0,0,1,.89-1.51,1.22,1.22,0,0,1,1.48.91,1.25,1.25,0,0,1-.89,1.51,1.22,1.22,0,0,1-1.48-.91m-0.3.08a1.52,1.52,0,0,0,1.85,1.13,1.56,1.56,0,0,0,1.11-1.89,1.52,1.52,0,0,0-1.85-1.13,1.56,1.56,0,0,0-1.11,1.89h0Z" transform="translate(-4180 -4557.85)"/><polygon class="cls-1" points="241.19 12.38 239.64 14.84 239.13 14.51 240.32 12.6 238.39 11.5 238.69 10.95 241.19 12.38"/><polygon class="cls-1" points="247.13 10.67 246.76 11.16 239.55 5.41 239.93 4.92 247.13 10.67"/><path class="cls-1" d="M4422.92,4565.55a1.2,1.2,0,0,1,1.71-.21,1.27,1.27,0,0,1,.21,1.75,1.2,1.2,0,0,1-1.71.21,1.27,1.27,0,0,1-.21-1.75m-0.24-.19a1.58,1.58,0,0,0,.26,2.19,1.5,1.5,0,0,0,2.14-.27,1.58,1.58,0,0,0-.26-2.19,1.5,1.5,0,0,0-2.14.27h0Z" transform="translate(-4180 -4557.85)"/><polygon class="cls-1" points="242.27 7.18 239.42 7.45 239.36 6.83 241.57 6.62 241.23 4.39 241.83 4.29 242.27 7.18"/><rect class="cls-1" x="246.64" y="1.57" width="0.61" height="9.34"/><path class="cls-1" d="M4426.94,4563.55a1.25,1.25,0,1,1-1.22,1.25,1.23,1.23,0,0,1,1.22-1.25m0-.31a1.56,1.56,0,1,0,1.52,1.56,1.54,1.54,0,0,0-1.52-1.56h0Z" transform="translate(-4180 -4557.85)"/><polygon class="cls-1" points="246.94 4.85 244.98 2.72 245.43 2.29 246.94 3.94 248.46 2.29 248.91 2.72 246.94 4.85"/><path class="cls-1" d="M4467,4576.72h-18a1,1,0,0,1-1-1V4564a1,1,0,0,1,1-1h18a1,1,0,0,1,1,1v11.68A1,1,0,0,1,4467,4576.72Zm-16.36-1.64h14.72a1,1,0,0,0,1-1v-8.4a1,1,0,0,0-1-1h-14.72a1,1,0,0,0-1,1v8.4A1,1,0,0,0,4450.64,4575.08Z" transform="translate(-4180 -4557.85)"/><path class="cls-1" d="M4461,4562.4v-0.5a1,1,0,0,0-1-1h-4.11a1,1,0,0,0-1,1v0.5" transform="translate(-4180 -4557.85)"/><path class="cls-1" d="M4461.83,4562.4h-1.64v-0.5a0.13,0.13,0,0,0-.13-0.13h-4.11a0.13,0.13,0,0,0-.13.13v0.5h-1.64v-0.5a1.77,1.77,0,0,1,1.77-1.77h4.11a1.77,1.77,0,0,1,1.77,1.77v0.5Z" transform="translate(-4180 -4557.85)"/><line class="cls-1" x1="272" y1="9.15" x2="284" y2="9.15"/><rect class="cls-1" x="272" y="9.15" width="13" height="1"/><path class="cls-1" d="M4545.36,4575.74h6.95a4.8,4.8,0,0,0,2.67-.78,9.66,9.66,0,0,0,3.68-5.12,0.85,0.85,0,0,0-.82-1.1H4540a0.85,0.85,0,0,0-.82,1.1,9.47,9.47,0,0,0,4.16,5.41A4.07,4.07,0,0,0,4545.36,4575.74Z" transform="translate(-4180 -4557.85)"/><rect class="cls-1" x="4546.73" y="4565.78" width="13.59" height="0.78" transform="translate(-5764.48 1985.53) rotate(-62.93)"/><path class="cls-1" d="M4545.37,4567.45l-0.64-.45,1.06-1.5a1.49,1.49,0,0,0-.13-1.87,2.26,2.26,0,0,1-.14-2.92l0.94-1.23,0.62,0.47-0.94,1.23a1.48,1.48,0,0,0,.1,1.92,2.27,2.27,0,0,1,.2,2.85Z" transform="translate(-4180 -4557.85)"/><path class="cls-1" d="M4548.15,4567.45l-0.64-.45,1.06-1.5a1.49,1.49,0,0,0-.13-1.87,2.26,2.26,0,0,1-.14-2.92l0.94-1.23,0.62,0.47-0.94,1.23a1.48,1.48,0,0,0,.1,1.92,2.27,2.27,0,0,1,.2,2.85Z" transform="translate(-4180 -4557.85)"/><rect class="cls-1" x="364.98" y="18.72" width="7.9" height="0.81"/><path class="cls-1" d="M4587,4559.58a6.11,6.11,0,0,0-6.72,10.11,4.1,4.1,0,1,1-3.91-2l-0.55-1.95a6.11,6.11,0,1,0,4.91,1.38,4.1,4.1,0,1,1,3.89,2l0.54,1.95A6.11,6.11,0,0,0,4587,4559.58Z" transform="translate(-4180 -4557.85)"/><path class="cls-1" d="M4224,4565.23a5.14,5.14,0,0,1-1.75,4.2,7.61,7.61,0,0,1-5,1.45h-1.58v6H4212v-17h5.55a7.5,7.5,0,0,1,4.81,1.33A4.81,4.81,0,0,1,4224,4565.23Zm-8.32,2.7h1.21a4.1,4.1,0,0,0,2.54-.66,2.28,2.28,0,0,0,.84-1.91,2.33,2.33,0,0,0-.71-1.87,3.36,3.36,0,0,0-2.22-.6h-1.68v5Z" transform="translate(-4180 -4557.85)"/><circle class="cls-1" cx="126" cy="17.07" r="0.88"/><path class="cls-1" d="M4314.75,4566.43l1.25-1.25a14.16,14.16,0,0,0-20,0l1.25,1.25A12.39,12.39,0,0,1,4314.75,4566.43Z" transform="translate(-4180 -4557.85)"/><path class="cls-1" d="M4311.62,4569.55l1.25-1.25a9.73,9.73,0,0,0-13.75,0l1.25,1.25A8,8,0,0,1,4311.62,4569.55Z" transform="translate(-4180 -4557.85)"/><path class="cls-1" d="M4308.5,4572.68l1.25-1.25a5.31,5.31,0,0,0-7.5,0l1.25,1.25A3.54,3.54,0,0,1,4308.5,4572.68Z" transform="translate(-4180 -4557.85)"/><path class="cls-1" d="M4374,4575.56h-0.87v2.86h-3.32v-2.86h-9.64v2.86h-3.29v-2.86H4356V4562q0-1.87,2.21-2.72a28,28,0,0,1,13.57,0q2.21,0.85,2.21,2.72v13.58Zm-14.79-2a1.1,1.1,0,0,0-.34-0.81,1.17,1.17,0,0,0-1.64,0,1.1,1.1,0,0,0-.34.81,1.08,1.08,0,0,0,.34.8,1.17,1.17,0,0,0,1.64,0A1.08,1.08,0,0,0,4359.21,4573.59Zm5.27-7.42v-2.91a1.28,1.28,0,0,0-1.28-1.27h-5a1.22,1.22,0,0,0-1.23,1.22v3.09a1.12,1.12,0,0,0,1.12,1.11h5.17A1.24,1.24,0,0,0,4364.48,4566.17Zm5.32,7.1v-0.68h-9.64v0.68h9.64Zm0,1.38V4574h-9.64v0.68h9.64Zm3.24-8.35v-3.23A1.09,1.09,0,0,0,4372,4562h-5.39a1,1,0,0,0-1.05,1v3.26a1.12,1.12,0,0,0,1.12,1.11h5.3A1.11,1.11,0,0,0,4373,4566.3Zm0,7.3a1.1,1.1,0,0,0-.34-0.81,1.16,1.16,0,0,0-1.63,0,1.09,1.09,0,0,0-.34.81,1.07,1.07,0,0,0,.34.8,1.16,1.16,0,0,0,1.63,0A1.08,1.08,0,0,0,4373.09,4573.59Z" transform="translate(-4180 -4557.85)"/><circle class="cls-1" cx="156" cy="11.57" r="4.25"/><path class="cls-1" d="M4342,4558.42h-12a2,2,0,0,0-2,2v16a2,2,0,0,0,2,2h12a2,2,0,0,0,2-2v-16A2,2,0,0,0,4342,4558.42Zm-9,1h2v1.5h-2v-1.5Zm-3,0h2v1.5h-2v-1.5Zm6,16a6,6,0,1,1,6-6A6,6,0,0,1,4336,4575.42Zm6-14.5h-6v-1.5h6v1.5Z" transform="translate(-4180 -4557.85)"/><ellipse class="cls-1" cx="15.57" cy="9.2" rx="2.37" ry="2.48"/><polygon class="cls-1" points="2 12.15 8.56 8.58 5.9 4.28 14.78 2.08 14.44 3.81 9.69 5.67 13.59 12.15 2 12.15"/><polygon class="cls-1" points="3.75 19.07 0 15.91 1.25 14.6 3.75 16.71 6.87 14.07 9.99 16.71 13.12 14.08 16.25 16.71 18.75 14.6 20 15.91 16.25 19.07 13.12 16.44 9.99 19.07 6.87 16.44 3.75 19.07"/><rect class="cls-1" x="56" y="9.15" width="1" height="4"/><rect class="cls-1" x="58" y="7.15" width="2" height="8"/><rect class="cls-1" x="75" y="9.15" width="1" height="4"/><rect class="cls-1" x="72" y="7.15" width="2" height="8"/><polygon class="cls-1" points="69 10.15 63 10.15 63 5.15 61 5.15 61 17.15 63 17.15 63 12.15 69 12.15 69 17.15 71 17.15 71 5.15 69 5.15 69 10.15"/><rect class="cls-1" x="88" y="2.57" width="16" height="2"/><path class="cls-1" d="M4268,4564.42v10h16v-10h-16Zm9,8.41-2.5-2.5-2.79,2.79-1.41-1.41,4.21-4.21,2.5,2.5,4.29-4.29,1.41,1.41Z" transform="translate(-4180 -4557.85)"/><polygon class="cls-1" points="96.88 15.57 98.82 18.57 101 18.57 99.26 15.57 96.88 15.57"/><polygon class="cls-1" points="95.12 15.57 93.18 18.57 91 18.57 92.74 15.57 95.12 15.57"/></svg>