<?xml version="1.0" encoding="utf-8"?>
<!-- Generator: Adobe Illustrator 19.2.1, SVG Export Plug-In . SVG Version: 6.00 Build 0)  -->
<svg version="1.1" id="Layer_1" xmlns="http://www.w3.org/2000/svg" xmlns:xlink="http://www.w3.org/1999/xlink" x="0px" y="0px"
	 viewBox="0 0 50 150" width="50" height="150" style="enable-background:new 0 0 50 150;" xml:space="preserve">
<style type="text/css">
	.st0{opacity:0.75;fill:#FFFFFF;enable-background:new    ;}
	.st1{fill:#FFFFFF;}
	.st2{clip-path:url(#SVGID_2_);}
	.st3{clip-path:url(#SVGID_4_);}
	.st4{opacity:0.5;fill:#969599;enable-background:new    ;}
	.st5{opacity:0.75;fill:#FFFFFF;}
</style>
<polygon class="st0" points="9.4,1 11.8,6.5 17.8,7.1 13.3,11.1 14.6,17 9.4,13.9 4.2,17 5.4,11.1 0.9,7.1 6.9,6.5 "/>
<g>
	<g>
		<path class="st1" d="M29.7,24.6C29.4,24.3,29,24,28.6,24H7.8l-6-1.8c-0.7-0.2-1.5,0.2-1.7,0.9c-0.2,0.7,0.2,1.5,0.9,1.7l5.5,1.8
			l3.8,11.5c0.2,0.6,0.7,0.9,1.3,0.9h13c0.6,0,1.1-0.4,1.3-0.9l4-12.2C30.1,25.5,30,25,29.7,24.6z M26.8,27l-1.1,3H10.6l-1.1-3H26.8
			z M23.6,36h-11l-1.1-3h13.3L23.6,36z"/>
		<ellipse class="st1" cx="13.8" cy="43.5" rx="2.7" ry="2.7"/>
		<ellipse class="st1" cx="22.2" cy="43.5" rx="2.7" ry="2.7"/>
	</g>
</g>
<g>
	<g>
		<g>
			<g>
				<defs>
					<path id="SVGID_1_" d="M21,54.5L20.4,54l-0.2-0.1c-0.9-0.7-1-1.9-0.3-2.8c0.7-0.9,1.9-1,2.8-0.3l0.9,0.7L21,54.5z"/>
				</defs>
				<clipPath id="SVGID_2_">
					<use xlink:href="#SVGID_1_"  style="overflow:visible;"/>
				</clipPath>
				<g class="st2">
					
						<image style="overflow:visible;enable-background:new    ;" width="10" height="10" xlink:href="20C283B.png"  transform="matrix(0.95 0 0 0.87 14.0652 45.8456)">
					</image>
				</g>
			</g>
		</g>
		
			<image style="overflow:visible;enable-background:new    ;" width="27" height="24" xlink:href="20C2839.png"  transform="matrix(0.9259 0 0 0.9458 3 50.7633)">
		</image>
		<g>
			<g>
				<defs>
					<path id="SVGID_3_" d="M4.6,54.8l0.6-1C5.8,52.9,7,52.6,8,53.2C9,53.8,9.2,55,8.6,56l-0.1,0.2l-0.4,0.7L4.6,54.8z"/>
				</defs>
				<clipPath id="SVGID_4_">
					<use xlink:href="#SVGID_3_"  style="overflow:visible;"/>
				</clipPath>
				<g class="st3">
					
						<image style="overflow:visible;enable-background:new    ;" width="9" height="10" xlink:href="20C283F.png"  transform="matrix(0.9 0 0 0.97 4.6436 47.0492)">
					</image>
				</g>
			</g>
		</g>
	</g>
</g>
<path class="st4" d="M6.1,79c-4.2,0-8.9,5.1,0,14C15,84.1,10.3,79,6.1,79z M6.1,86.5c-1.3,0-2.4-1-2.4-2.3s1.1-2.3,2.4-2.3
	s2.4,1,2.4,2.3C8.4,85.4,7.4,86.5,6.1,86.5z"/>
<polygon class="st5" points="36.4,1 38.8,6.5 44.8,7.1 40.3,11.1 41.6,17 36.4,14 31.2,17 32.5,11.1 28,7.1 34,6.5 "/>
</svg>
