<svg class="nemo-loader nemo-loader__1" xmlns="http://www.w3.org/2000/svg" version="1.1" width="50" height="50" viewBox="0 0 100 100">
    <path class="nemo-loader-dot" d="M41.6,21.7l0.5-0.3l-0.5-2.1l0.7,0.1l0.8,1c0.1,0.1,0.3,0.2,0.5,0.2l4.9-0.3l-2.5-6.6c-0.1-0.2,0.1-0.4,0.3-0.4
	l0.7,0.2c0.7,0.2,1.4,0.6,1.8,1.2l3.8,5.6l3.9,0.2c0.7,0,1.3,0.4,1.7,0.9v0c0.2,0.2,0.2,0.6,0,0.8v0c-0.4,0.5-1,0.9-1.7,0.9
	l-3.9,0.2l-3.8,5.6c-0.4,0.6-1.1,1.1-1.8,1.2L46.4,30c-0.2,0-0.4-0.2-0.3-0.4l2.5-6.6l-4.9-0.3c-0.2,0-0.4,0.1-0.5,0.2l-0.8,1
	l-0.7,0.1l0.5-2.1L41.6,21.7z"  fill="rgba(255, 255, 255, 1)">
        <animateTransform
                attributeType="xml"
                attributeName="transform"
                dur="1.2s"
                keyTimes="0; 1"
                calcMode="spline"
                keySplines=".5 .1 .5 .9"
                repeatCount="indefinite"
                type="rotate"
                from="0   50 50"
                to=  "360 50 50"
        >
        </animateTransform>
    </path>

    <path class="nemo-loader-dot" d="M41.6,21.7l0.5-0.3l-0.5-2.1l0.7,0.1l0.8,1c0.1,0.1,0.3,0.2,0.5,0.2l4.9-0.3l-2.5-6.6c-0.1-0.2,0.1-0.4,0.3-0.4
	l0.7,0.2c0.7,0.2,1.4,0.6,1.8,1.2l3.8,5.6l3.9,0.2c0.7,0,1.3,0.4,1.7,0.9v0c0.2,0.2,0.2,0.6,0,0.8v0c-0.4,0.5-1,0.9-1.7,0.9
	l-3.9,0.2l-3.8,5.6c-0.4,0.6-1.1,1.1-1.8,1.2L46.4,30c-0.2,0-0.4-0.2-0.3-0.4l2.5-6.6l-4.9-0.3c-0.2,0-0.4,0.1-0.5,0.2l-0.8,1
	l-0.7,0.1l0.5-2.1L41.6,21.7z"  fill="rgba(255, 255, 255, 1)">
        <animateTransform
                attributeType="xml"
                attributeName="transform"
                dur="2.4s"
                keyTimes="0; 1"
                calcMode="spline"
                keySplines=".8 .1 .2 .9"
                repeatCount="indefinite"
                type="rotate"
                from="0   50 50"
                to=  "360 50 50"
        >
        </animateTransform>
    </path>

    <path class="nemo-loader-dot" d="M41.6,21.7l0.5-0.3l-0.5-2.1l0.7,0.1l0.8,1c0.1,0.1,0.3,0.2,0.5,0.2l4.9-0.3l-2.5-6.6c-0.1-0.2,0.1-0.4,0.3-0.4
	l0.7,0.2c0.7,0.2,1.4,0.6,1.8,1.2l3.8,5.6l3.9,0.2c0.7,0,1.3,0.4,1.7,0.9v0c0.2,0.2,0.2,0.6,0,0.8v0c-0.4,0.5-1,0.9-1.7,0.9
	l-3.9,0.2l-3.8,5.6c-0.4,0.6-1.1,1.1-1.8,1.2L46.4,30c-0.2,0-0.4-0.2-0.3-0.4l2.5-6.6l-4.9-0.3c-0.2,0-0.4,0.1-0.5,0.2l-0.8,1
	l-0.7,0.1l0.5-2.1L41.6,21.7z"  fill="rgba(255, 255, 255, 1)">
        <animateTransform
                attributeType="xml"
                attributeName="transform"
                dur="1.8s"
                keyTimes="0; 1"
                calcMode="spline"
                keySplines=".5 .1 .5 .9"
                repeatCount="indefinite"
                type="rotate"
                from="0   50 50"
                to=  "360 50 50"
        >
        </animateTransform>
    </path>
</svg>