<?xml version="1.0" encoding="utf-8"?>
<!-- Generator: Adobe Illustrator 18.0.0, SVG Export Plug-In . SVG Version: 6.00 Build 0)  -->
<!DOCTYPE svg PUBLIC "-//W3C//DTD SVG 1.1//EN" "http://www.w3.org/Graphics/SVG/1.1/DTD/svg11.dtd">
<svg version="1.1" id="Layer_1" xmlns="http://www.w3.org/2000/svg" xmlns:xlink="http://www.w3.org/1999/xlink" x="0px" y="0px"
	 viewBox="0 0 64.3 10" enable-background="new 0 0 64.3 10" xml:space="preserve">
<g>
	<polygon fill="#F7BA17" points="5.3,0 6.8,3.4 10.5,3.8 7.7,6.3 8.5,10 5.3,8.1 2,10 2.8,6.3 0,3.8 3.7,3.4 	"/>
	<polygon fill="#F7BA17" points="18.7,0 20.2,3.4 24,3.8 21.2,6.3 22,10 18.7,8.1 15.5,10 16.3,6.3 13.4,3.8 17.2,3.4 	"/>
	<polygon fill="#F7BA17" points="32.1,0 33.7,3.4 37.4,3.8 34.6,6.3 35.4,10 32.1,8.1 28.9,10 29.7,6.3 26.9,3.8 30.6,3.4 	"/>
	<polygon fill="#F7BA17" points="45.6,0 47.1,3.4 50.8,3.8 48,6.3 48.8,10 45.6,8.1 42.3,10 43.1,6.3 40.3,3.8 44.1,3.4 	"/>
	<polygon fill="#F7BA17" points="59,0 60.5,3.4 64.3,3.8 61.5,6.3 62.3,10 59,8.1 55.8,10 56.6,6.3 53.8,3.8 57.5,3.4 	"/>
</g>
</svg>
