<?xml version="1.0" encoding="utf-8"?>
<!-- Generator: Adobe Illustrator 17.0.0, SVG Export Plug-In . SVG Version: 6.00 Build 0)  -->
<!DOCTYPE svg PUBLIC "-//W3C//DTD SVG 1.1//EN" "http://www.w3.org/Graphics/SVG/1.1/DTD/svg11.dtd">
<svg version="1.1" id="Layer_1" xmlns="http://www.w3.org/2000/svg" xmlns:xlink="http://www.w3.org/1999/xlink" x="0px" y="0px"
	 width="102.5px" height="100px" viewBox="0 0 102.5 100" enable-background="new 0 0 102.5 100" xml:space="preserve">
<g>
	<g>
		<line fill="none" stroke="#EE272E" stroke-width="2" stroke-miterlimit="10" x1="0" y1="1" x2="10" y2="1"/>
	</g>
</g>
<g>
	<g>
		<line fill="none" stroke="#EE272E" stroke-width="2" stroke-miterlimit="10" x1="0" y1="15" x2="10" y2="15"/>
		<line fill="none" stroke="#EE272E" stroke-width="2" stroke-miterlimit="10" x1="5" y1="10" x2="5" y2="20"/>
	</g>
</g>
<polyline fill="none" stroke="#FFFFFF" stroke-width="2" stroke-miterlimit="10" points="32,1 20,13 32,25 "/>
<g id="Checkbox_off_3">
	<g>
		
			<linearGradient id="SVGID_1_" gradientUnits="userSpaceOnUse" x1="265.5" y1="-293" x2="265.5" y2="-276.0792" gradientTransform="matrix(1 0 0 -1 -256 -245)">
			<stop  offset="0" style="stop-color:#E3E5E7"/>
			<stop  offset="1" style="stop-color:#FFFFFF"/>
		</linearGradient>
		<path fill="url(#SVGID_1_)" d="M18,39.5c0,4.675-3.825,8.5-8.5,8.5S1,44.175,1,39.5S4.825,31,9.5,31S18,34.825,18,39.5z"/>
		<path fill="#DCDCDC" d="M9.5,31c4.675,0,8.5,3.825,8.5,8.5S14.175,48,9.5,48S1,44.175,1,39.5S4.825,31,9.5,31 M9.5,30
			C4.262,30,0,34.262,0,39.5S4.262,49,9.5,49s9.5-4.262,9.5-9.5S14.738,30,9.5,30L9.5,30z"/>
		<path fill="#FFFFFF" d="M9.5,32c4.136,0,7.5,3.364,7.5,7.5S13.636,47,9.5,47S2,43.636,2,39.5S5.364,32,9.5,32 M9.5,31
			C4.825,31,1,34.825,1,39.5S4.825,48,9.5,48s8.5-3.825,8.5-8.5S14.175,31,9.5,31L9.5,31z"/>
	</g>
</g>
<g id="Checkbox_on_2">
	<polyline fill="none" stroke="#FF1724" stroke-miterlimit="10" points="40,1 50,11 60,1 	"/>
	<path fill="#688ACF" d="M72.5,27.5c2.243,0,3.75-1.507,3.75-3.75S74.743,20,72.5,20h-1.25v6.25H70v1.25h1.25v1.25H70V30h1.25v1.25
		h1.25V30h3.75v-1.25H72.5V27.5z M72.5,21.25c1.566,0,2.5,0.934,2.5,2.5s-0.934,2.5-2.5,2.5V21.25z"/>
	<path fill="#7BB236" d="M70,4.5l3.821,3.821l6-6L77.5,0l-4,4L72,2.5C72,2.5,70,5,70,4.5z"/>
	<polygon fill="#E43801" points="78,41.333 76.667,40 74,42.667 71.333,40 70,41.333 72.667,44 70,46.667 71.333,48 74,45.333 
		76.667,48 78,46.667 75.333,44 	"/>
	<polyline opacity="0.5" fill="none" stroke="#B0B0B0" stroke-miterlimit="10" enable-background="new    " points="91,1 101,21 
		91,41 	"/>
</g>
<polygon fill="#FFFFFF" points="58,21 57,20 54,23 51,20 50,21 53,24 50,27 51,28 54,25 57,28 58,27 55,24 "/>
</svg>
