<svg width="21" height="21" viewBox="0 0 21 21" fill="none" xmlns="http://www.w3.org/2000/svg">
	<path d="M6.32218 4.1735L4.81159 2.68768L3.62829 3.85807L5.13049 5.34389L6.32218 4.1735ZM4.00594 8.87167H1.48828V10.5318H4.00594V8.87167ZM11.5589 0.612518H9.88047V3.06121H11.5589V0.612518V0.612518ZM17.8111 3.85807L16.6278 2.68768L15.1256 4.1735L16.3089 5.34389L17.8111 3.85807ZM15.1172 15.23L16.6194 16.7241L17.8027 15.5537L16.2921 14.0679L15.1172 15.23ZM17.4334 8.87167V10.5318H19.9511V8.87167H17.4334ZM10.7197 4.72134C7.94188 4.72134 5.68438 6.95422 5.68438 9.70173C5.68438 12.4493 7.94188 14.6821 10.7197 14.6821C13.4975 14.6821 15.755 12.4493 15.755 9.70173C15.755 6.95422 13.4975 4.72134 10.7197 4.72134ZM9.88047 18.791H11.5589V16.3423H9.88047V18.791ZM3.62829 15.5454L4.81159 16.7158L6.31379 15.2217L5.13049 14.0513L3.62829 15.5454Z" fill="#FF9731"/>
</svg>
