<svg xmlns="http://www.w3.org/2000/svg" width="19" height="38" viewBox="0 0 19 38"><svg xmlns:xlink="http://www.w3.org/1999/xlink" width="19" height="19"><symbol id="b" viewBox="-1 -18 19 19"><linearGradient id="a" gradientUnits="userSpaceOnUse" x1="8.5" y1="-17" x2="8.5" y2="-.079"><stop offset="0" stop-color="#E6E6E6"/><stop offset="1" stop-color="#fff"/></linearGradient><path fill="url(#a)" d="M17-15c0-1.1-.9-2-2-2H2c-1.1 0-2 .9-2 2v13C0-.9.9 0 2 0h13c1.1 0 2-.9 2-2v-13z"/><path fill="#DDDDDC" d="M15 0c1.1 0 2-.9 2-2v-13c0-1.1-.9-2-2-2H2c-1.1 0-2 .9-2 2v13C0-.9.9 0 2 0h13m0 1H2C.3 1-1-.3-1-2v-13c0-1.7 1.3-3 3-3h13c1.7 0 3 1.3 3 3v13c0 1.7-1.3 3-3 3z"/><path fill="#fff" d="M15-1c.6 0 1-.4 1-1v-13c0-.6-.4-1-1-1H2c-.6 0-1 .4-1 1v13c0 .6.4 1 1 1h13m0 1H2C.9 0 0-.9 0-2v-13c0-1.1.9-2 2-2h13c1.1 0 2 .9 2 2v13c0 1.1-.9 2-2 2z"/><path fill="#1F90CF" d="M4.3-6.9L2.6-8.2l4.2-5.5 7.7 8.5-1.6 1.6-6.4-6.2z"/></symbol><use xlink:href="#b" width="19" height="19" x="-1" y="-18" transform="matrix(1 0 0 -1 1 1)" overflow="visible"/></svg><svg xmlns:xlink="http://www.w3.org/1999/xlink" width="19" height="19" y="19"><symbol id="d" viewBox="-1 -18 19 19"><linearGradient id="c" gradientUnits="userSpaceOnUse" x1="8.5" y1="-17" x2="8.5" y2="-.079"><stop offset="0" stop-color="#E6E6E6"/><stop offset="1" stop-color="#fff"/></linearGradient><path fill="url(#c)" d="M17-15c0-1.1-.9-2-2-2H2c-1.1 0-2 .9-2 2v13C0-.9.9 0 2 0h13c1.1 0 2-.9 2-2v-13z"/><path fill="#DDDDDC" d="M15 0c1.1 0 2-.9 2-2v-13c0-1.1-.9-2-2-2H2c-1.1 0-2 .9-2 2v13C0-.9.9 0 2 0h13m0 1H2C.3 1-1-.3-1-2v-13c0-1.7 1.3-3 3-3h13c1.7 0 3 1.3 3 3v13c0 1.7-1.3 3-3 3z"/><path fill="#fff" d="M15-1c.6 0 1-.4 1-1v-13c0-.6-.4-1-1-1H2c-.6 0-1 .4-1 1v13c0 .6.4 1 1 1h13m0 1H2C.9 0 0-.9 0-2v-13c0-1.1.9-2 2-2h13c1.1 0 2 .9 2 2v13c0 1.1-.9 2-2 2z"/><path opacity=".25" fill="#BDBDBD" d="M4.3-6.9L2.6-8.2l4.2-5.5 7.7 8.5-1.6 1.6-6.4-6.2z"/></symbol><use xlink:href="#d" width="19" height="19" x="-1" y="-18" transform="matrix(1 0 0 -1 1 1)" overflow="visible"/></svg></svg>