<?xml version="1.0"?>
<!--Icons from directory ""-->
<svg xmlns="http://www.w3.org/2000/svg" width="19" height="38" viewBox="0 0 19 38"><svg xmlns:xlink="http://www.w3.org/1999/xlink" viewBox="0 0 19 19" width="19" height="19" id="radio1" y="0"><symbol id="radio1-b" viewBox="-1 -18 19 19"><linearGradient id="radio1-a" y2="-.079" gradientUnits="userSpaceOnUse" x2="8.5" y1="-17" x1="8.5"><stop stop-color="#E6E6E6" offset="0"/><stop stop-color="#fff" offset="1"/></linearGradient><path d="m17-8.5c0-4.7-3.8-8.5-8.5-8.5s-8.5 3.8-8.5 8.5 3.8 8.5 8.5 8.5 8.5-3.8 8.5-8.5z" fill="url(#radio1-a)"/><path d="m8.5 0c4.7 0 8.5-3.8 8.5-8.5s-3.8-8.5-8.5-8.5-8.5 3.8-8.5 8.5 3.8 8.5 8.5 8.5m0 1c-5.2 0-9.5-4.3-9.5-9.5s4.3-9.5 9.5-9.5 9.5 4.3 9.5 9.5-4.3 9.5-9.5 9.5z" fill="#DDDDDC"/><path d="m8.5-1c4.1 0 7.5-3.4 7.5-7.5s-3.4-7.5-7.5-7.5-7.5 3.4-7.5 7.5 3.4 7.5 7.5 7.5m0 1c-4.7 0-8.5-3.8-8.5-8.5s3.8-8.5 8.5-8.5 8.5 3.8 8.5 8.5-3.8 8.5-8.5 8.5z" fill="#fff"/><path d="m12-8.5c0-1.9-1.6-3.5-3.5-3.5s-3.5 1.6-3.5 3.5 1.6 3.5 3.5 3.5 3.5-1.6 3.5-3.5z" fill="#2190CF"/></symbol><use xlink:href="#radio1-b" transform="matrix(1 0 0 -1 1 1)" height="19" width="19" y="-18" x="-1" overflow="visible"/></svg><svg xmlns:xlink="http://www.w3.org/1999/xlink" viewBox="0 0 19 19" width="19" height="19" id="radio2" y="19"><symbol id="radio2-b" viewBox="-1 -18 19 19"><linearGradient id="radio2-a" y2="-.079" gradientUnits="userSpaceOnUse" x2="8.5" y1="-17" x1="8.5"><stop stop-color="#E6E6E6" offset="0"/><stop stop-color="#fff" offset="1"/></linearGradient><path d="m17-8.5c0-4.7-3.8-8.5-8.5-8.5s-8.5 3.8-8.5 8.5 3.8 8.5 8.5 8.5 8.5-3.8 8.5-8.5z" fill="url(#radio2-a)"/><path d="m8.5 0c4.7 0 8.5-3.8 8.5-8.5s-3.8-8.5-8.5-8.5-8.5 3.8-8.5 8.5 3.8 8.5 8.5 8.5m0 1c-5.2 0-9.5-4.3-9.5-9.5s4.3-9.5 9.5-9.5 9.5 4.3 9.5 9.5-4.3 9.5-9.5 9.5z" fill="#DDDDDC"/><path d="m8.5-1c4.1 0 7.5-3.4 7.5-7.5s-3.4-7.5-7.5-7.5-7.5 3.4-7.5 7.5 3.4 7.5 7.5 7.5m0 1c-4.7 0-8.5-3.8-8.5-8.5s3.8-8.5 8.5-8.5 8.5 3.8 8.5 8.5-3.8 8.5-8.5 8.5z" fill="#fff"/></symbol><use xlink:href="#radio2-b" transform="matrix(1 0 0 -1 1 1)" height="19" width="19" y="-18" x="-1" overflow="visible"/></svg></svg>
