<svg version="1.1" id="Layer_1" xmlns="http://www.w3.org/2000/svg" xmlns:xlink="http://www.w3.org/1999/xlink" x="0px" y="0px"
	 width="100px" height="100px" viewBox="0 0 100 100" style="enable-background:new 0 0 100 100;" xml:space="preserve">
	<style type="text/css">
		.svg-plane{fill:#3366CC;}
	</style>

	<polygon class="svg-plane" points="48.26,26.652 47.486,33.894 49.42,33.323 51.934,26.654 57.733,26.14 58.895,25 57.735,23.859
	51.934,23.347 49.42,16.677 47.487,16.106 48.26,23.347 43.377,23.568 42.395,22.019 41.105,22.019 41.88,25.019 41.105,28.019
	42.395,28.019 43.376,26.455 ">
		<animateTransform
				attributeName="transform"
				begin="0s"
				dur="2s"
				type="rotate"
				from="0 45 50"
				to="360 45 50"
				repeatCount="indefinite"
				/>
	</polygon>

	<polygon class="svg-plane" points="48.26,26.652 47.486,33.894 49.42,33.323 51.934,26.654 57.733,26.14 58.895,25 57.735,23.859
	51.934,23.347 49.42,16.677 47.487,16.106 48.26,23.347 43.377,23.568 42.395,22.019 41.105,22.019 41.88,25.019 41.105,28.019
	42.395,28.019 43.376,26.455 ">
		<animateTransform
				attributeName="transform"
				begin="-0.5s"
				dur="2s"
				type="rotate"
				from="0 45 50"
				to="360 45 50"
				repeatCount="indefinite"
				/>
	</polygon>

	<polygon class="svg-plane" points="48.26,26.652 47.486,33.894 49.42,33.323 51.934,26.654 57.733,26.14 58.895,25 57.735,23.859
	51.934,23.347 49.42,16.677 47.487,16.106 48.26,23.347 43.377,23.568 42.395,22.019 41.105,22.019 41.88,25.019 41.105,28.019
	42.395,28.019 43.376,26.455 ">
		<animateTransform
				attributeName="transform"
				begin="-0.25s"
				dur="2s"
				type="rotate"
				from="180 45 55"
				to="540 45 55"
				repeatCount="indefinite"
				/>
	</polygon>

	<polygon class="svg-plane" points="48.26,26.652 47.486,33.894 49.42,33.323 51.934,26.654 57.733,26.14 58.895,25 57.735,23.859
	51.934,23.347 49.42,16.677 47.487,16.106 48.26,23.347 43.377,23.568 42.395,22.019 41.105,22.019 41.88,25.019 41.105,28.019
	42.395,28.019 43.376,26.455 ">
		<animateTransform
				attributeName="transform"
				begin="-0.75s"
				dur="2s"
				type="rotate"
				from="180 55 55"
				to="540 55 55"
				repeatCount="indefinite"
				/>
	</polygon>

	<polygon class="svg-plane" points="48.26,26.652 47.486,33.894 49.42,33.323 51.934,26.654 57.733,26.14 58.895,25 57.735,23.859
	51.934,23.347 49.42,16.677 47.487,16.106 48.26,23.347 43.377,23.568 42.395,22.019 41.105,22.019 41.88,25.019 41.105,28.019
	42.395,28.019 43.376,26.455 ">
		<animateTransform
				attributeName="transform"
				begin="-1.5s"
				dur="2s"
				type="rotate"
				from="270 50 50"
				to="630 50 50"
				repeatCount="indefinite"
				/>
	</polygon>

</svg>
