<?xml version="1.0" encoding="utf-8"?>
<!-- Generator: Adobe Illustrator 18.0.0, SVG Export Plug-In . SVG Version: 6.00 Build 0)  -->
<!DOCTYPE svg PUBLIC "-//W3C//DTD SVG 1.1//EN" "http://www.w3.org/Graphics/SVG/1.1/DTD/svg11.dtd">
<svg version="1.1" id="Layer_1" xmlns="http://www.w3.org/2000/svg" xmlns:xlink="http://www.w3.org/1999/xlink" x="0px" y="0px"
	 viewBox="0 0 10.3 22" enable-background="new 0 0 10.3 22" xml:space="preserve">
<path fill="#70B2E2" d="M10.2,0H6.8C3.6,0,0.8,2.5,0.8,7.3c0,2.9,1.3,5,3.7,6.1l-4.5,8.1c-0.1,0.3,0,0.5,0.2,0.5h2.1
	c0.2,0,0.3,0,0.3-0.1L6.8,14h1.3v7.8c0,0.1,0.2,0.2,0.3,0.2h1.8c0.2,0-0.1-0.1-0.1-0.2V0.3C10.1,0.1,10.4,0,10.2,0z M8.1,12H7
	c-1.9,0-3.8-1.4-3.8-4.9C3.2,3.5,5,2,6.8,2h1.4V12z"/>
</svg>
