<?xml version="1.0" encoding="utf-8"?>
<!-- Generator: Adobe Illustrator 18.0.0, SVG Export Plug-In . SVG Version: 6.00 Build 0)  -->
<!DOCTYPE svg PUBLIC "-//W3C//DTD SVG 1.1//EN" "http://www.w3.org/Graphics/SVG/1.1/DTD/svg11.dtd">
<svg version="1.1" id="Layer_1" xmlns="http://www.w3.org/2000/svg" xmlns:xlink="http://www.w3.org/1999/xlink" x="0px" y="0px"
	 viewBox="0 0 22 21.1" enable-background="new 0 0 22 21.1" xml:space="preserve">
<path fill-rule="evenodd" clip-rule="evenodd" fill="#70B2E2" d="M10.6,4.4c1.7,0,3.4,0.7,4.4,1.9v0c0-0.6,0.5-0.7,1-0.7h0.1
	c0.8,0,1,0.7,1,0.9l0,8.6c-0.1,0.6,0.6,0.8,0.9,0.5c1.4-1.4,3.1-7.4-0.9-10.8C13.5,1.5,8.6,2,5.9,3.8C3.2,5.8,1.4,10,3.1,14
	c1.9,4.3,7.3,5.6,10.5,4.3c1.6-0.7,2.4,1.5,0.7,2.3c-2.5,1.1-9.6,1-12.9-4.8C-0.9,11.9-0.8,5.1,5.2,1.6c4.5-2.7,10.5-2,14.1,1.8
	c3.8,3.9,3.5,11.3-0.1,14.2c-1.7,1.3-4.1,0-4.1-1.9l0-0.6c-1.2,1.2-2.7,1.8-4.4,1.8c-3.3,0-6.3-2.9-6.3-6.2
	C4.4,7.3,7.3,4.4,10.6,4.4L10.6,4.4L10.6,4.4L10.6,4.4z M14.8,10.5c-0.1-2.4-1.9-3.9-4.1-3.9h-0.1c-2.5,0-3.9,2-3.9,4.2
	c0,2.5,1.7,4.1,3.9,4.1c2.5,0,4.1-1.8,4.2-3.9L14.8,10.5z"/>
</svg>
