<?xml version="1.0" encoding="utf-8"?>
<!-- Generator: Adobe Illustrator 18.0.0, SVG Export Plug-In . SVG Version: 6.00 Build 0)  -->
<!DOCTYPE svg PUBLIC "-//W3C//DTD SVG 1.1//EN" "http://www.w3.org/Graphics/SVG/1.1/DTD/svg11.dtd">
<svg version="1.1" id="Layer_1" xmlns="http://www.w3.org/2000/svg" xmlns:xlink="http://www.w3.org/1999/xlink" x="0px" y="0px"
	 viewBox="0 0 25.5 22.1" enable-background="new 0 0 25.5 22.1" xml:space="preserve">
<polygon fill="#70B2E2" points="11.5,22.1 15.5,19.8 15.5,0 11.5,2.3 "/>
<path fill="#70B2E2" d="M0,14c0,6.8,10.5,7.8,10.5,7.8v-2.1c0,0-6.9-1.6-6.9-5.7c0-4.2,6.9-5.5,6.9-5.5V6.5C10.5,6.5,0,7.3,0,14z"/>
<path fill="#70B2E2" d="M23.4,8.6c0,0-1.6-1-3.4-1.6c-1.8-0.5-3.4-0.5-3.4-0.5v2.1c0,0,1.2,0,2.5,0.5c1.3,0.5,1.9,0.7,1.9,0.7
	l-2,1.2h6.7V7.3L23.4,8.6z"/>
</svg>
