<?xml version="1.0" encoding="utf-8"?>
<!-- Generator: Adobe Illustrator 18.0.0, SVG Export Plug-In . SVG Version: 6.00 Build 0)  -->
<!DOCTYPE svg PUBLIC "-//W3C//DTD SVG 1.1//EN" "http://www.w3.org/Graphics/SVG/1.1/DTD/svg11.dtd">
<svg version="1.1" id="Layer_1" xmlns="http://www.w3.org/2000/svg" xmlns:xlink="http://www.w3.org/1999/xlink" x="0px" y="0px"
	 viewBox="0 0 106 30" enable-background="new 0 0 106 30" xml:space="preserve">
<g opacity="0.75">
	<g id="layer1_27_" transform="translate(-0.50947594,-589.89212)" >
		<path id="path275_27_" fill="#FFFFFF" d="M100.1,592.6L100.1,592.6L100.1,592.6L100.1,592.6z M94.1,596.1
			c-0.1,0.2-1.2,1.6-1.2,1.6l-0.5,0.7c-3.8,0.4-7.9,2.5-12.3,6.1C82.8,601.5,87,597.4,94.1,596.1 M100.7,592.5
			c1.5-0.2,3.2-0.5,4.8-1.7c-0.6,0.8-1.3,1.8-1.3,1.8c-1.5,2-2.6,2.2-3.6,2.4l-2.2,0.2l-1.9,0.1c-0.8,0.1-1.4,0.3-1.9,0.5
			c0.7-0.9,1.6-1.9,2.4-2.5c0.9-0.5,1.9-0.6,2.5-0.7l0.4,0L100.7,592.5z M100.7,592.2l-0.6,0.1l-0.4,0c-0.7,0.1-1.7,0.1-2.7,0.7
			c-0.9,0.6-2,1.8-2.7,2.7c-7.9,1.3-12.3,6-15.1,9.1l-1.8,2.1l0.3-0.1c5.4-5,10.2-7.6,14.7-8.1l0.1,0l0.6-0.8l1.3-1.6
			c0.5-0.5,1.2-0.6,2.3-0.8l1.8-0.1l2.2-0.2c1-0.1,2.2-0.3,3.8-2.5l2-2.7l-0.2-0.2C104.4,591.7,102.5,591.9,100.7,592.2"/>
		<path id="path277_27_" fill="#FFFFFF" d="M6.9,609.9l-0.1-0.3l-4.7,0.3l0.9,0.5L6.9,609.9z M7.5,610.8l-0.1-0.1l-0.2-0.2l-2.3,0.4
			l1,0.3L7.5,610.8z M9.4,610.6c0.1,0,0.3-0.1,0.4-0.2L9.1,609l0.7-0.3l-0.6-0.5L9,608.3l-1,0.5l0.3,0.7l0.5-0.2L9.4,610.6
			L9.4,610.6z M10.5,607.8c0.3,0.3,0.5,0.7,0.6,1.1h-0.4c0-0.1-0.1-0.3-0.1-0.4c-0.3-0.8-0.9-1.3-1.6-1.7l-0.3-0.2l0.3,0.1
			C9.6,607,10.1,607.3,10.5,607.8 M10.5,611.8l0.1,0.2l-0.1,0.1l-0.3,0.2l-0.4-0.8c-0.2,0.1-0.5,0.1-0.8,0.1c-0.3,0-0.6,0-0.9-0.1
			l-0.3,0.8c-0.1,0-0.3,0-0.4-0.1l-0.1-0.2l0.1-0.2l0.3-0.5l-0.3-0.2l0.2-0.3c0.4,0.2,0.9,0.4,1.3,0.4c0.4,0,0.9-0.1,1.3-0.4
			l0.3,0.1l0.1,0l-0.1,0.1c-0.1,0.1-0.1,0.2-0.3,0.2L10.5,611.8L10.5,611.8z M16.1,609.8l1.2-0.8h-6.7c0,0.3,0,0.5-0.1,0.7
			c-0.3,0.7-0.9,1-1.6,1c-0.6,0-1.3-0.3-1.6-1c-0.1-0.2-0.2-0.5-0.2-0.8H0.5l1.2,0.8l5.1-0.3c0.1,0.4,0.3,0.7,0.5,0.9
			c0.4,0.4,1,0.7,1.6,0.7c0.6,0,1.1-0.2,1.6-0.7c0.2-0.2,0.4-0.5,0.5-0.9L16.1,609.8L16.1,609.8z M15.8,609.9l-0.9,0.4l-3.8-0.4
			l0.1-0.3L15.8,609.9z M13,610.9l-1,0.4l-1.5-0.4l-0.1,0l0.1-0.1l0.2-0.2L13,610.9z M13.5,610.8l0.8-0.4l-3.4-0.4
			c0,0.1-0.1,0.2-0.2,0.3L13.5,610.8z M4.3,610.8l-0.8-0.4l3.4-0.4c0.1,0.1,0.1,0.2,0.2,0.3L4.3,610.8z"/>
		<path id="path279_27_" fill="#FFFFFF" d="M36.3,617.6c1.5,0.2,4.5,0.6,8.1,0.7c3.6,0.1,7.9-0.1,11.9-0.7c4-0.6,7.8-1.6,10.5-2.6
			c2.7-1,4.2-2.2,4.2-2.2c0,0-1.6,1.4-4.4,2.7c-2.8,1.3-6.8,2.5-11,3.3c-4.2,0.8-8.6,1.2-12.2,1.2c-3.6,0-6.4-0.3-7.3-0.4
			c-3.4-0.5-5.8-1.4-7.3-2.2c-1.5-0.9-2-1.6-1.9-1.8c0.2-0.2,0.9,0.2,2.4,0.7C30.8,616.6,33.1,617.1,36.3,617.6"/>
		<path id="polygon300_27_" fill="#FFFFFF" d="M93.2,600.9c-6.8,0.1-9.9,1.7-15.6,5.9l-1.2,1.2l0,0c5.9-4.3,9.3-4.7,14.2-4.6
			c0.5,0,0.9,0.1,1.2-0.5L93.2,600.9z"/>
		<path id="polygon321_27_" fill="#FFFFFF" d="M94.5,595.9c-9.6,1.6-13.9,8.1-16.9,10.9c5.8-5.3,10.6-7.7,14.8-8.2
			C92.8,598.1,94.1,596.4,94.5,595.9L94.5,595.9L94.5,595.9z"/>
		<path id="polygon348_27_" fill="#FFFFFF" d="M92.4,598.6c-6.4,0.9-10.6,4.5-14.5,7.9c-0.1,0.1-0.5,0.5-0.6,0.6l0,0
			c3.4-2.5,6.2-5.1,13.3-6C90.9,600.7,91.9,599.3,92.4,598.6z"/>
		<path id="polygon365_27_" fill="#FFFFFF" d="M92.6,600.6c-1.1,0-2.3,0.5-2.4,0.8c-0.2,0.5,0.1,0.3,0.9,0.8
			c0.7,0.4,0.6,0.6,0.5,0.8c0.7-0.9,1.8-2.3,1.8-2.3C93.2,600.7,92.9,600.6,92.6,600.6z"/>
		<path id="polygon402_27_" fill="#FFFFFF" d="M104.6,592.7c-2,2.6-6.5,2.4-7.9,2.6c-1.3,0.2-2.1,0.5-2.7,1.2l-1.8,2.5
			c0.4-0.4,1.6-0.5,2.9-0.6h0.2h0.2c0.2,0,0.4,0,0.6,0c1.9-0.1,4.5-0.3,6-2.1l2.3-3.1L104.6,592.7z"/>
		<path id="polygon431_27_" fill="#FFFFFF" d="M106.4,590c-2.1,2.1-4.4,2.1-6.3,2.4c-0.6,0.1-1.9,0.1-3,0.7c-1.1,0.7-2.4,2.3-3,3.2
			c0.6-0.6,1.4-0.8,2.5-0.9c1.2-0.1,2.8-0.1,4-0.3c1.1-0.1,2.2-0.4,3.7-2.4L106.4,590L106.4,590z"/>
		<path id="polygon470_27_" fill="#FFFFFF" d="M102.1,596.1c-0.9,1.1-2.4,1.6-4.3,1.9c-1.4,0.2-3,0.3-3.5,0.3
			c-0.8,0-1.8,0.3-2.1,0.6c-0.9,1.1-1.7,2.1-2,2.6c0.5-0.5,2.3-0.5,4.5-0.6c2.2-0.1,4.4-1,6.1-3L102.1,596.1L102.1,596.1z"/>
		<polygon id="polygon472_27_" fill="#FFFFFF" points="12.1,603.5 19.4,603.5 19.4,602.4 15,602.4 15,600.3 18.9,600.3 18.9,599.3 
			15,599.3 15,597.4 19.1,597.4 19.1,596.3 12.1,596.3 		"/>
		<path id="path482_27_" fill="#FFFFFF" d="M23.6,603.5v-6.1h1.7c0.5,0,1,0,1.4,0.3c0.3,0.2,0.5,0.5,0.5,0.9c0,0.3-0.1,0.7-0.6,1
			c-0.6,0.4-1.6,0.4-2.2,0.3l-0.4,0l2.9,3.6h3.3l-2.7-3c0.5-0.1,1.3-0.2,1.8-0.6c0.6-0.4,0.9-1,0.9-1.5c0-0.6-0.3-1.2-1-1.7
			c-0.9-0.5-2-0.5-3.1-0.5h-5.4v7.2H23.6z"/>
		<polygon id="polygon484_27_" fill="#FFFFFF" points="46.9,597.4 51.1,597.4 51.1,596.3 44,596.3 44,603.5 46.9,603.5 46.9,600.5 
			50.8,600.5 50.8,599.4 46.9,599.4 		"/>
		<polygon id="polygon486_27_" fill="#FFFFFF" points="55.1,602.4 55.1,596.3 52.2,596.3 52.2,603.5 59.3,603.5 59.3,602.4 		"/>
		<polygon id="polygon488_27_" fill="#FFFFFF" points="77.3,603.5 77.3,597.4 80.4,597.4 80.4,596.3 71.3,596.3 71.3,597.4 
			74.4,597.4 74.4,603.5 		"/>
		<path id="path498_27_" fill="#FFFFFF" d="M65.1,602.8c-0.7,0-1.6-0.2-2.2-0.9c-0.5-0.6-0.6-1.4-0.6-2c0-0.7,0.1-1.4,0.6-2
			c0.6-0.8,1.5-1,2.2-1c0.7,0,1.6,0.2,2.2,1c0.5,0.6,0.6,1.4,0.6,2c0,0.6-0.1,1.4-0.6,2C66.7,602.7,65.8,602.8,65.1,602.8
			 M65.1,596.1c-1.4,0-3.3,0.3-4.5,1.2c-1,0.7-1.5,1.7-1.5,2.6c0,0.9,0.5,1.9,1.5,2.6c1.3,0.9,3.2,1.2,4.5,1.2
			c1.3,0,3.3-0.3,4.5-1.2c1-0.7,1.5-1.7,1.5-2.6c0-0.9-0.5-1.9-1.5-2.6C68.4,596.4,66.4,596.1,65.1,596.1"/>
		<path id="path500_27_" fill="#FFFFFF" d="M37,602.8c-0.7,0-1.6-0.2-2.2-0.9c-0.5-0.6-0.6-1.4-0.6-2c0-0.7,0.1-1.4,0.6-2
			c0.6-0.8,1.5-1,2.2-1c0.7,0,1.6,0.2,2.2,1c0.5,0.6,0.6,1.4,0.6,2c0,0.6-0.1,1.4-0.6,2C38.6,602.7,37.7,602.8,37,602.8 M37,596.1
			c-1.3,0-3.2,0.3-4.5,1.2c-1,0.7-1.5,1.7-1.5,2.6c0,0.9,0.5,1.9,1.5,2.6c1.3,0.9,3.2,1.2,4.5,1.2c1.4,0,3.3-0.3,4.5-1.2
			c1-0.7,1.5-1.7,1.5-2.6c0-0.9-0.5-1.9-1.5-2.6C40.3,596.4,38.4,596.1,37,596.1"/>
		<path id="path502_27_" fill="#FFFFFF" d="M3.6,600.4l1.4-2.5h0l1.5,2.5H3.6z M2,603.5l1.1-2.1h4l1.2,2.1h3.3l-4.4-7.2H4.5l-4,7.2
			H2z"/>
		<path id="path512_27_" fill="#FFFFFF" d="M30.9,609.3l-0.6,2.4c-0.1,0.1-0.2,0.2-0.3,0.2c-0.2,0.1-0.3,0.1-0.5,0.1
			c-0.2,0-0.3-0.1-0.4-0.2c0-0.1-0.1-0.2,0-0.4l0.6-2.2H29l-0.6,2.1c0,0.2-0.1,0.5,0,0.8c0.1,0.1,0.3,0.3,0.7,0.3
			c0.2,0,0.3,0,0.6-0.1c0.1-0.1,0.3-0.2,0.4-0.3l-0.1,0.3h0.5l0.8-3.1H30.9z"/>
		<path id="path514_27_" fill="#FFFFFF" d="M34.7,609.6c-0.1-0.2-0.3-0.3-0.3-0.3c-0.2-0.1-0.4-0.1-0.6-0.1c-0.2,0-0.5,0-0.7,0.2
			c-0.2,0.1-0.5,0.4-0.6,0.7c-0.1,0.3,0,0.5,0,0.6c0.1,0.1,0.3,0.2,0.5,0.3l0.3,0.1c0.2,0,0.3,0,0.4,0.2c0,0.1,0.1,0.1,0.1,0.3
			c0,0.1-0.1,0.2-0.2,0.3c-0.1,0.1-0.3,0.2-0.6,0.2c-0.2,0-0.3,0-0.5-0.1c-0.1-0.1-0.2-0.2-0.3-0.2l-0.4,0.4c0.3,0.4,0.6,0.4,1,0.4
			c0.2,0,0.7,0,1.1-0.3c0.2-0.2,0.4-0.4,0.4-0.6c0-0.2,0.1-0.4,0-0.5c-0.1-0.2-0.4-0.3-0.5-0.3l-0.2-0.1c-0.3-0.1-0.4-0.1-0.5-0.2
			c-0.1,0-0.1-0.1-0.1-0.3c0-0.1,0.1-0.2,0.2-0.3c0.2-0.1,0.3-0.1,0.4-0.1c0.1,0,0.3,0,0.4,0.1l0.2,0.2L34.7,609.6z"/>
		<path id="path516_27_" fill="#FFFFFF" d="M38,609.6c-0.1-0.2-0.3-0.3-0.3-0.3c-0.2-0.1-0.4-0.1-0.6-0.1c-0.2,0-0.5,0-0.7,0.2
			c-0.2,0.1-0.5,0.4-0.6,0.7c-0.1,0.3,0,0.5,0.1,0.6c0.1,0.1,0.3,0.2,0.5,0.3l0.3,0.1c0.2,0,0.3,0,0.4,0.2c0.1,0.1,0.1,0.1,0.1,0.3
			c-0.1,0.1-0.1,0.2-0.2,0.3c-0.1,0.1-0.3,0.2-0.6,0.2c-0.2,0-0.3,0-0.5-0.1c-0.1-0.1-0.2-0.2-0.3-0.2l-0.4,0.4
			c0.3,0.4,0.6,0.4,1,0.4c0.2,0,0.7,0,1.1-0.3c0.2-0.2,0.4-0.4,0.4-0.6c0-0.2,0.1-0.4,0-0.5c-0.1-0.2-0.3-0.3-0.5-0.3l-0.2-0.1
			c-0.3-0.1-0.4-0.1-0.5-0.2c-0.1,0-0.1-0.1-0.1-0.3c0-0.1,0.1-0.2,0.2-0.3c0.1-0.1,0.3-0.1,0.4-0.1c0.2,0,0.3,0,0.4,0.1l0.2,0.2
			L38,609.6z"/>
		<path id="path518_27_" fill="#FFFFFF" d="M39.5,608.3c-0.1,0.2,0.1,0.4,0.3,0.4c0.2,0,0.4-0.2,0.5-0.4c0.1-0.2-0.1-0.4-0.3-0.4
			C39.8,607.9,39.6,608.1,39.5,608.3 M39.1,609.3l-0.1,0.4h0.4l-0.7,2.7h0.6l0.8-3.1H39.1z"/>
		<path id="path520_27_" fill="#FFFFFF" d="M45,612.4l0.7-2.4c0.2-0.2,0.5-0.3,0.8-0.3c0.2,0,0.3,0.1,0.4,0.2c0.1,0.1,0,0.4,0,0.5
			l-0.6,2.1h0.6l0.6-2.1c0.1-0.3,0.1-0.6,0-0.8c-0.1-0.2-0.4-0.3-0.7-0.3c-0.2,0-0.5,0-0.9,0.3l0.1-0.2h-1l-0.1,0.4h0.4l-0.7,2.7H45
			L45,612.4z"/>
		<path id="path522_27_" fill="#FFFFFF" d="M26.4,609.9h-0.1h-0.9l0.4-1.5h0.6h0.3c0.1,0,0.4,0,0.6,0.2c0.1,0.1,0.2,0.2,0.1,0.5
			c-0.1,0.2-0.2,0.4-0.4,0.6C26.8,609.8,26.6,609.9,26.4,609.9 M25.3,607.9l-1.2,4.5h0.7l0.5-2h0.5l0.6,2h0h0.8l-0.7-2
			c0.3,0,0.8-0.2,1-0.4c0.3-0.2,0.5-0.5,0.6-0.9c0.1-0.3,0.1-0.6-0.1-0.9c-0.3-0.3-0.8-0.4-1.1-0.4h-0.4H25.3L25.3,607.9z"/>
		<path id="path524_27_" fill="#FFFFFF" d="M42,612l-0.3,0.1c-0.1,0-0.3,0-0.4-0.1c-0.1-0.1-0.1-0.2,0-0.4c0-0.1,0.1-0.2,0.2-0.4
			c0.1-0.1,0.2-0.1,0.4-0.2c0.1,0,0.2,0,0.3,0h0.4l-0.2,0.7c-0.1,0.1-0.2,0.2-0.3,0.3L42,612L42,612z M42,610.6
			c-0.6,0.1-1.1,0.3-1.3,1l0,0.2v0.1c0,0.3,0.2,0.6,0.8,0.6c0.2,0,0.4,0,0.6-0.1l0.1,0c0.2-0.1,0.4-0.3,0.4-0.3h0l-0.1,0.4H43l0.5-2
			c0.1-0.3,0.2-0.6,0-0.9c-0.1-0.2-0.5-0.3-0.8-0.3c-0.3,0-0.5,0-0.7,0.1c-0.5,0.1-0.7,0.5-0.8,0.8l0.5,0c0-0.2,0.1-0.3,0.2-0.3
			c0.1-0.1,0.3-0.1,0.6-0.1c0.1,0,0.3,0,0.3,0.1c0.1,0.1,0.1,0.3,0,0.4l-0.1,0.4h-0.4C42.3,610.6,42.2,610.6,42,610.6"/>
		<path id="path526_27_" fill="#FFFFFF" d="M56.9,608.3c0,0.2,0.1,0.4,0.3,0.4c0.2,0,0.4-0.2,0.5-0.4c0.1-0.2-0.1-0.4-0.3-0.4
			C57.2,607.9,57,608.1,56.9,608.3 M56.4,609.3l-0.1,0.4h0.4l-0.7,2.7h0.6l0.8-3.1H56.4z"/>
		<path id="path528_27_" fill="#FFFFFF" d="M58.7,609.3l-0.8,3.1h0.6l0.5-1.8c0.1-0.2,0.2-0.4,0.3-0.6c0.2-0.3,0.4-0.3,0.5-0.3
			l0.2,0.1c0,0,0.1,0.1,0.1,0.3l0.5-0.2c0.1-0.3,0-0.5-0.2-0.6c-0.1,0-0.2-0.1-0.3-0.1c-0.3,0-0.7,0.2-0.9,0.5l0.1-0.5H58.7
			L58.7,609.3z"/>
		<path id="path530_27_" fill="#FFFFFF" d="M62,607.9l-1,3.7c-0.1,0.3-0.2,0.9,0.5,0.9h0.3l0.1-0.4h-0.2c-0.3,0-0.2-0.3-0.2-0.3
			l1-3.8H62L62,607.9z"/>
		<path id="path532_27_" fill="#FFFFFF" d="M64.1,608.3c0,0.2,0.1,0.4,0.3,0.4c0.2,0,0.4-0.2,0.5-0.4c0-0.2-0.1-0.4-0.3-0.4
			C64.4,607.9,64.2,608.1,64.1,608.3 M63.6,609.3l-0.1,0.4h0.4l-0.7,2.7h0.6l0.8-3.1H63.6L63.6,609.3z"/>
		<path id="path534_27_" fill="#FFFFFF" d="M65.8,612.4l0.6-2.4c0.2-0.2,0.5-0.3,0.8-0.3c0.2,0,0.3,0.1,0.4,0.2c0.1,0.1,0,0.4,0,0.5
			l-0.6,2.1h0.6l0.6-2.1c0.1-0.3,0.1-0.6,0-0.8c-0.1-0.2-0.4-0.3-0.7-0.3c-0.2,0-0.5,0-0.9,0.3l0.1-0.2h-1l-0.1,0.4h0.4l-0.7,2.7
			H65.8L65.8,612.4z"/>
		<path id="path536_27_" fill="#FFFFFF" d="M75,609.6c-0.1-0.2-0.3-0.3-0.3-0.3c-0.2-0.1-0.4-0.1-0.6-0.1c-0.2,0-0.5,0-0.7,0.2
			c-0.2,0.1-0.5,0.4-0.6,0.7c-0.1,0.3,0,0.5,0.1,0.6c0.1,0.1,0.3,0.2,0.4,0.3l0.3,0.1c0.2,0,0.3,0,0.4,0.2c0.1,0.1,0.1,0.1,0.1,0.3
			c0,0.1-0.1,0.2-0.2,0.3c-0.1,0.1-0.3,0.2-0.6,0.2c-0.2,0-0.3,0-0.5-0.1c-0.1-0.1-0.2-0.2-0.3-0.2l-0.4,0.4c0.3,0.4,0.6,0.4,1,0.4
			c0.3,0,0.7,0,1.1-0.3c0.2-0.2,0.4-0.4,0.4-0.6c0-0.2,0.1-0.4,0-0.5c-0.1-0.2-0.4-0.3-0.5-0.3l-0.2-0.1c-0.3-0.1-0.4-0.1-0.5-0.2
			c0,0-0.1-0.1-0.1-0.3c0-0.1,0.1-0.2,0.2-0.3c0.2-0.1,0.3-0.1,0.4-0.1c0.2,0,0.3,0,0.4,0.1l0.2,0.2L75,609.6z"/>
		<path id="path538_27_" fill="#FFFFFF" d="M52.8,610.8l1.2-1.9h0l0.1,1.9H52.8z M51.1,612.4h0.7l0.7-1.1h1.7l0.1,1.1H55l-0.4-4.5
			H54L51.1,612.4z"/>
		<path id="path548_27_" fill="#FFFFFF" d="M69.8,610.6l0-0.1c0.1-0.2,0.1-0.4,0.3-0.6c0.1-0.1,0.3-0.2,0.5-0.2c0.2,0,0.3,0,0.4,0.1
			c0.1,0.2,0.1,0.5,0,0.7l0,0.1H69.8L69.8,610.6z M69.8,611h1.9l0-0.2c0.1-0.4,0.2-0.8,0-1.2c-0.2-0.3-0.6-0.4-0.8-0.4
			c-0.4,0-0.8,0.1-1.1,0.4c-0.4,0.4-0.6,0.8-0.7,1.3c-0.1,0.3-0.2,0.8,0.1,1.2c0.2,0.3,0.7,0.4,1,0.4c0.2,0,0.5,0,0.7-0.1
			c0.1,0,0.3-0.1,0.4-0.2l-0.1-0.4c-0.1,0.1-0.3,0.1-0.4,0.1c-0.2,0-0.3,0.1-0.4,0.1c-0.2,0-0.4-0.1-0.5-0.2c-0.2-0.2-0.1-0.5,0-0.7
			L69.8,611L69.8,611z"/>
	</g>
</g>
</svg>
