<?xml version="1.0" encoding="utf-8"?>
<!-- Generator: Adobe Illustrator 18.0.0, SVG Export Plug-In . SVG Version: 6.00 Build 0)  -->
<!DOCTYPE svg PUBLIC "-//W3C//DTD SVG 1.1//EN" "http://www.w3.org/Graphics/SVG/1.1/DTD/svg11.dtd">
<svg version="1.1" id="Layer_1" xmlns="http://www.w3.org/2000/svg" xmlns:xlink="http://www.w3.org/1999/xlink" x="0px" y="0px"
	 viewBox="0 0 140 23.9" enable-background="new 0 0 140 23.9" xml:space="preserve">
<g opacity="0.75">
	<path id="path2874_3_" fill="#2F2F34" d="M23.9,12c0,6.6-5.3,11.9-12,11.9C5.4,23.9,0,18.6,0,12
		C0,5.3,5.4,0,12.1,0C18.6,0,23.9,5.4,23.9,12 M1.2,12c0,5.9,4.8,10.7,10.7,10.7c5.9,0,10.7-4.8,10.7-10.7c0-6-4.7-10.8-10.8-10.8
		C6,1.2,1.2,6.1,1.2,12z M9.3,11.5l-0.1,0.3c-0.5-0.1-1.6-0.5-2.6-1l-0.1,0.3l0.4,0.2c1.5,0.8,2,1,2.9,1c1.8,0,3.1-1,3.7-2.8
		c1.1-0.2,2.5-0.3,4.2-0.3c1.4,0,2.7,0.1,4.3,0.3l-0.4,0.5c-0.7-0.1-2.1-0.2-3.1-0.2c-1.2,0-1.9,0-2.3,0L16,10.2c1,0,1.3,0,2.1,0
		c1.3,0,2.3,0,3.2,0.1l-0.4,0.5c-1.5,0-2.2-0.1-3.3-0.1c-0.6,0-1.1,0-1.8,0l-0.2,0.4c0.6,0,1.5-0.1,2.5-0.1c0.9,0,1.9,0,2.6,0
		l-0.4,0.5c-0.4,0-1.3,0-1.9,0c-1,0-2.3,0-3,0.1L15,12.2c1.2-0.1,2-0.2,3.3-0.2c0.5,0,0.9,0,1.5,0l-0.5,0.5c-0.8,0-1.1,0-1.4,0
		c-2.3,0-3.8,0.3-5.2,1.2c1.4,1.4,3.6,2.3,5.7,2.3c0.2,0,0.3,0,0.7,0l-1,1c-5.4-1.4-6.4-1.8-11.3-4.7c-2-1.1-3.6-1.9-4.9-2.3
		l0.2-0.6c0.3,0,1,0.2,1.6,0.5L4,9.3L9.3,11.5z"/>
	<path id="path2876_3_" fill="#2F2F34" d="M43.8,4v12.8h6.7v3.2H39.8V4H43.8 M58.9,19.9l-0.1-1.1
		c-0.9,1-2,1.4-3.3,1.4c-1.6,0-2.9-0.7-3.6-1.8c-0.5-0.9-0.6-1.3-0.6-3.2V8.5h3.8v6.6c0,1.7,0.5,2.4,1.6,2.4c1.2,0,1.9-0.8,1.9-2.4
		V8.5h3.8v11.5H58.9z M70.9,6.5h-0.6c-1.4,0-1.7,0.3-1.7,1.6v0.3h2.2V11h-2.2v8.9h-3.8V11h-1.6V8.5h1.6V8.1c0-3,1.1-4.1,4.1-4.1h2.1
		V6.5z M76.6,4.9v3.6h2.1V11h-2.1v4.5c0,1.7,0.1,1.8,1.6,1.8h0.7v2.6h-2.8c-2.2,0-3.2-1-3.2-3.4V11h-1.6V8.5h1.6V4.9H76.6L76.6,4.9z
		 M83.5,4v5.8c0.7-1.1,1.7-1.6,3.1-1.6c1.6,0,2.8,0.7,3.5,1.9c0.5,0.9,0.6,1.4,0.6,3.3v6.6H87v-6.5c0-1.7-0.5-2.4-1.6-2.4
		c-1.2,0-1.9,0.8-1.9,2.4v6.5h-3.8V4H83.5L83.5,4z M92.3,12.1c0-2.6,2-4.1,5.4-4.1c3.6,0,5.3,1.5,5.3,4.5v5.9c0,1,0,1,0.3,1.6H100
		l-0.2-1c-1.2,1.1-2.2,1.4-3.7,1.4c-2.5,0-4.4-1.5-4.4-3.6c0-1.7,1.1-2.9,3.3-3.6c0.3-0.1,1.4-0.3,3.3-0.7c0.8-0.2,1.1-0.4,1.1-1
		c0-0.6-0.7-1.1-1.7-1.1c-1.2,0-1.9,0.6-2,1.6H92.3L92.3,12.1z M99.5,14.4c-0.5,0.1-0.6,0.2-1,0.3c-0.5,0.1-0.9,0.2-1.4,0.3
		c-1.2,0.3-1.8,0.8-1.8,1.5c0,0.7,0.6,1.2,1.5,1.2c1.8,0,2.7-0.8,2.7-2.5V14.4L99.5,14.4z M107.8,8.5l0.1,1.3
		c0.9-1.1,1.9-1.6,3.3-1.6c1.6,0,2.9,0.7,3.6,1.9c0.5,0.9,0.6,1.4,0.6,3.3v6.6h-3.8v-6.5c0-1.7-0.5-2.4-1.6-2.4
		c-1.2,0-1.8,0.8-1.8,2.4v6.5h-3.8V8.5H107.8z M123.7,12.1c-0.1-1.1-0.6-1.5-1.7-1.5c-0.9,0-1.5,0.4-1.5,1c0,0.5,0.5,0.9,1.8,1.1
		l1.3,0.2c2.7,0.5,4,1.6,4,3.6c0,2.4-2.1,4-5.3,4c-3.8,0-6-1.5-6-4.3h3.7v0.1c0,1,0.8,1.6,2.1,1.6c1.1,0,1.8-0.4,1.8-1.1
		c0-0.7-0.6-1.1-2.1-1.3l-1.2-0.2c-2.7-0.5-3.9-1.5-3.9-3.3c0-2.5,2.1-4,5.5-4c2.4,0,3.9,0.6,4.6,2c0.3,0.6,0.4,0.8,0.5,2H123.7z
		 M128.9,12.1c0-2.6,2.1-4.1,5.5-4.1c3.6,0,5.3,1.5,5.3,4.5v5.9c0,1,0,1,0.3,1.6h-3.5l-0.2-1c-1.4,1.1-2.2,1.4-3.7,1.4
		c-2.6,0-4.4-1.5-4.4-3.6c0-1.7,1.1-2.9,3.3-3.6c0.3-0.1,1.4-0.3,3.3-0.7c0.8-0.2,1.1-0.4,1.1-1c0-0.6-0.7-1.1-1.6-1.1
		c-1.2,0-2,0.6-2,1.6H128.9L128.9,12.1z M136.1,14.4c-0.5,0.1-0.6,0.2-1,0.3c-0.4,0.1-0.9,0.2-1.4,0.3c-1.2,0.3-1.8,0.8-1.8,1.5
		c0,0.7,0.6,1.2,1.5,1.2c1.8,0,2.7-0.8,2.7-2.5V14.4z"/>
</g>
</svg>
