<?xml version="1.0" encoding="utf-8"?>
<!-- Generator: Adobe Illustrator 18.0.0, SVG Export Plug-In . SVG Version: 6.00 Build 0)  -->
<!DOCTYPE svg PUBLIC "-//W3C//DTD SVG 1.1//EN" "http://www.w3.org/Graphics/SVG/1.1/DTD/svg11.dtd">
<svg version="1.1" id="Layer_1" xmlns="http://www.w3.org/2000/svg" xmlns:xlink="http://www.w3.org/1999/xlink" x="0px" y="0px"
	 viewBox="0 0 127 40" enable-background="new 0 0 127 40" xml:space="preserve">
<g>
	<linearGradient id="SVGID_1_" gradientUnits="userSpaceOnUse" x1="57.2697" y1="35.0573" x2="21.6121" y2="13.5016">
		<stop  offset="0" style="stop-color:#136EB5"/>
		<stop  offset="1" style="stop-color:#25BBEA"/>
	</linearGradient>
	<polygon fill="url(#SVGID_1_)" points="0,40 0,38.7 22.9,32.1 50,0.5 64.7,0 54.4,40 	"/>
	<path fill="#0C6DB6" d="M84,11.2l-2.7,10.1c-0.1,0.4-0.5,1.9-0.7,3.3c0-0.1-0.1-0.3-0.1-0.5c-0.1-0.3-0.1-0.6-0.1-0.8
		c-0.1-0.4-0.2-0.9-0.5-1.9l-2.7-10.2h-5.2L70,31.5h4.1l0.7-10.6c0.1-1.1,0.1-0.2,0.1-3.6c0.2,1.2,0.4,2.1,0.8,3.6l2.9,10.7h3.5
		l3.2-11.1c0.3-0.9,0.5-1.9,0.8-3.1c0.1,3.2,0.1,2.3,0.1,3.4L87,31.5h4l-1.8-20.3H84L84,11.2z"/>
	<path fill="#0C6DB6" d="M122.8,11.3c0,0-3.2,9.1-3.8,11.4c-0.4-1.5-0.7-2.5-1.3-4l-2.8-7.4h-4.4l5.5,14l2-0.3c0,0-0.2,1.5-1.3,2.2
		c-1,0.7-2.7,1-2.7,1l0.9,3.3c0,0,2.8-0.1,4.6-2c0.8-0.8,1.1-1.2,2.2-4.2l5.2-14H122.8z"/>
	<path fill="#0C6DB6" d="M104.7,11.2h-4.4l-6.6,20.3h4.2l1.1-3.7c1.5,0.1,4.8,0.5,7.6,3.6l0,0.1h4.4L104.7,11.2z M100,24.4l0.3-1.1
		c0.3-1,0.6-1.9,1.1-3.8c0.2-0.9,0.7-2.6,1-3.9c0.4,1.9,0.6,2.4,0.8,3.5c0.2,1,0.5,2,1.1,4.1l0.8,2.8
		C103.4,25.2,101.6,24.7,100,24.4z"/>
	<g>
		<linearGradient id="SVGID_2_" gradientUnits="userSpaceOnUse" x1="54.2573" y1="28.5007" x2="39.7436" y2="13.9869">
			<stop  offset="0" style="stop-color:#FBBE20"/>
			<stop  offset="1" style="stop-color:#F8F4A9"/>
		</linearGradient>
		<path fill="url(#SVGID_2_)" d="M47.1,11.3c-5.6,0-10.1,4.5-10.1,10.1c0,5.6,4.5,10.1,10.1,10.1c5.6,0,10.1-4.5,10.1-10.1
			C57.2,15.8,52.7,11.3,47.1,11.3z M47.1,30.8c-5.2,0-9.5-4.2-9.5-9.5c0-5.2,4.2-9.5,9.5-9.5c5.2,0,9.5,4.2,9.5,9.4
			C56.6,26.6,52.4,30.8,47.1,30.8z"/>
		<linearGradient id="SVGID_3_" gradientUnits="userSpaceOnUse" x1="54.2573" y1="28.5007" x2="39.7436" y2="13.9869">
			<stop  offset="0" style="stop-color:#FBBE20"/>
			<stop  offset="1" style="stop-color:#F8F4A9"/>
		</linearGradient>
		<path fill="url(#SVGID_3_)" d="M47.1,11.3c-5.6,0-10.1,4.5-10.1,10.1c0,5.6,4.5,10.1,10.1,10.1c5.6,0,10.1-4.5,10.1-10.1
			C57.2,15.8,52.7,11.3,47.1,11.3z M47.1,30.8c-5.2,0-9.5-4.2-9.5-9.5c0-5.2,4.2-9.5,9.5-9.5c5.2,0,9.5,4.2,9.5,9.4
			C56.6,26.6,52.4,30.8,47.1,30.8z"/>
		<linearGradient id="SVGID_4_" gradientUnits="userSpaceOnUse" x1="58.5644" y1="24.1749" x2="44.0495" y2="9.66">
			<stop  offset="0" style="stop-color:#FBBE20"/>
			<stop  offset="1" style="stop-color:#F8F4A9"/>
		</linearGradient>
		<path fill="url(#SVGID_4_)" d="M51.2,19l-0.1,0.4l2.2,0l2.6,0c0-0.1-0.1-0.2-0.1-0.4l-2.5,0L51.2,19z"/>
		<linearGradient id="SVGID_5_" gradientUnits="userSpaceOnUse" x1="54.251" y1="28.4883" x2="39.7369" y2="13.9742">
			<stop  offset="0" style="stop-color:#FBBE20"/>
			<stop  offset="1" style="stop-color:#F8F4A9"/>
		</linearGradient>
		<path fill="url(#SVGID_5_)" d="M40.9,22.2l-0.5,0.5l0-2.4h0.1c2,0,3.7,0.2,5.4,0.6c-0.9-0.4-1.9-0.7-2.8-0.9l0-1.8l10.4,0l2.2,0
			c-0.5-1.3-1.3-2.5-2.2-3.4c-1.6-1.6-3.8-2.5-6.3-2.5c-5,0-9.1,4.1-9.1,9.1c0,5,4.1,9,9.1,9c2.4,0,4.7-1,6.3-2.6
			c0.1-0.1,0.1-0.1,0.2-0.2c-0.1-0.1-0.1-0.1-0.2-0.2C50.2,24.3,45.8,22.3,40.9,22.2"/>
		<linearGradient id="SVGID_6_" gradientUnits="userSpaceOnUse" x1="56.9298" y1="25.808" x2="42.4175" y2="11.2958">
			<stop  offset="0" style="stop-color:#FBBE20"/>
			<stop  offset="1" style="stop-color:#F8F4A9"/>
		</linearGradient>
		<path fill="url(#SVGID_6_)" d="M53.7,25.8l0,1.8c1.5-1.6,2.5-3.8,2.5-6.2c0-0.4,0-0.9-0.1-1.3l-2.7,0l-5.6,0
			c2.3,1.3,4.2,3,5.7,5.1C53.5,25.4,53.6,25.5,53.7,25.8L53.7,25.8C53.7,25.7,53.7,25.7,53.7,25.8C53.8,25.7,53.7,25.7,53.7,25.8"/>
	</g>
</g>
</svg>
