<?xml version="1.0" encoding="utf-8"?>
<!-- Generator: Adobe Illustrator 18.0.0, SVG Export Plug-In . SVG Version: 6.00 Build 0)  -->
<!DOCTYPE svg PUBLIC "-//W3C//DTD SVG 1.1//EN" "http://www.w3.org/Graphics/SVG/1.1/DTD/svg11.dtd">
<svg version="1.1" id="Layer_1" xmlns="http://www.w3.org/2000/svg" xmlns:xlink="http://www.w3.org/1999/xlink" x="0px" y="0px"
	 viewBox="0 0 135 33.8" enable-background="new 0 0 135 33.8" xml:space="preserve">
<g>
	<g>
		<linearGradient id="SVGID_1_" gradientUnits="userSpaceOnUse" x1="2.9901" y1="36.9904" x2="44.8306" y2="-4.8501">
			<stop  offset="0" style="stop-color:#079EC7"/>
			<stop  offset="1" style="stop-color:#48BFB4"/>
		</linearGradient>
		<polygon fill="url(#SVGID_1_)" points="22,6.9 34.8,12.1 22,17.2 22,24.1 43,15 43,9.1 22,0 		"/>
		<linearGradient id="SVGID_2_" gradientUnits="userSpaceOnUse" x1="1.141" y1="35.1412" x2="42.9805" y2="-6.6983">
			<stop  offset="0" style="stop-color:#079EC7"/>
			<stop  offset="1" style="stop-color:#48BFB4"/>
		</linearGradient>
		<polygon fill="url(#SVGID_2_)" points="20,16.5 7.2,21.7 20,26.9 20,33.8 0,24.6 0,18.8 20,9.7 		"/>
	</g>
	<g>
		<g>
			<path fill="#A09F9F" d="M64.1,29.3v-4.5c0-1.1-0.5-1.7-1.5-1.7c-1.3,0-1.9,0.7-1.9,2.3v3.9h-1.1v-4.5c0-1.1-0.5-1.7-1.5-1.7
				c-0.7,0-1.1,0.2-1.5,0.6c-0.3,0.4-0.5,1-0.5,1.9v3.7h-1.1v-7H56l0.2,1h0.1c0.4-0.7,1.2-1.1,2.1-1.1c1.1,0,1.8,0.4,2.1,1.2h0.1
				c0.4-0.7,1.2-1.2,2.2-1.2c1.6,0,2.4,0.8,2.4,2.5v4.5H64.1z"/>
			<path fill="#A09F9F" d="M68.2,22.3v4.5c0,1.1,0.5,1.7,1.6,1.7c0.7,0,1.3-0.2,1.6-0.6c0.3-0.4,0.5-1,0.5-1.9v-3.7H73v7h-0.9
				L72,28.3h-0.1c-0.4,0.7-1.2,1.1-2.2,1.1c-1.7,0-2.5-0.8-2.5-2.5v-4.6H68.2z"/>
			<path fill="#A09F9F" d="M75,20.7h0.6l0.4,1.5l2,0.1v0.8h-2v4.1c0,0.8,0.4,1.3,1.1,1.3c0.4,0,0.7-0.1,1-0.1v0.8
				c-0.1,0.1-0.3,0.1-0.5,0.1c-0.2,0-0.4,0.1-0.6,0.1c-1.3,0-2-0.7-2-2.1V20.7z"/>
			<path fill="#A09F9F" d="M80.1,28.5c-0.6-0.6-0.9-1.5-0.9-2.6c0-1.1,0.3-2,0.8-2.7c0.6-0.7,1.3-1,2.2-1c0.9,0,1.6,0.3,2.1,0.9
				c0.5,0.6,0.8,1.3,0.8,2.3V26h-4.8c0,1.6,0.9,2.5,2.3,2.5c0.7,0,1.5-0.2,2.2-0.5V29c-0.4,0.2-0.7,0.3-1.1,0.3
				c-0.3,0.1-0.7,0.1-1.2,0.1C81.5,29.4,80.7,29.1,80.1,28.5z M80.3,25.1h3.6c0-1.3-0.6-2.1-1.7-2.1C81.1,23.1,80.4,23.8,80.3,25.1z
				"/>
			<path fill="#A09F9F" d="M91.3,29.3h-1.1v-9.9h1.1V29.3z"/>
			<path fill="#A09F9F" d="M98.4,22.3h0.8v7h-0.8l-0.2-0.9h-0.1c-0.5,0.7-1.3,1-2.2,1c-0.9,0-1.6-0.3-2.1-0.9
				c-0.5-0.6-0.8-1.5-0.8-2.7c0-1.1,0.3-2,0.8-2.6c0.5-0.6,1.2-0.9,2.1-0.9c1,0,1.7,0.4,2.2,1.1h0.1L98.4,22.3z M94.2,25.8
				c0,1.8,0.6,2.7,1.9,2.7c0.7,0,1.2-0.2,1.6-0.6c0.3-0.4,0.5-1.1,0.5-2.1c0-1-0.2-1.7-0.5-2.1c-0.3-0.4-0.8-0.6-1.6-0.6
				C94.8,23.1,94.2,24,94.2,25.8z M98.4,22.3l-0.2,1L98.4,22.3z"/>
			<path fill="#A09F9F" d="M106.5,23.2c0.5,0.6,0.8,1.5,0.8,2.6c0,1.1-0.3,2-0.8,2.7c-0.5,0.6-1.2,0.9-2.1,0.9s-1.7-0.3-2.2-1h-0.1
				l-0.2,0.9h-0.8v-9.9h1.1v2.4c0,0.5,0,1-0.1,1.4h0.1c0.5-0.7,1.2-1,2.2-1C105.3,22.2,106,22.5,106.5,23.2z M102.6,23.7
				c-0.3,0.4-0.5,1.1-0.5,2.1c0,1,0.2,1.7,0.5,2.1c0.3,0.4,0.9,0.6,1.6,0.6c1.3,0,1.9-1,1.9-2.7c0-1.8-0.6-2.7-1.9-2.7
				C103.5,23.1,102.9,23.3,102.6,23.7z"/>
		</g>
		<g>
			<path fill="#A09F9F" d="M59.7,15.3L59.7,15.3c-0.5,0.7-1.3,1.1-2.2,1.1c-0.9,0-1.6-0.3-2.1-0.9c-0.5-0.6-0.8-1.5-0.8-2.7
				c0-1.2,0.3-2,0.8-2.7c0.5-0.6,1.2-1,2.1-1c0.9,0,1.7,0.3,2.2,1h0.1l0-0.5l0-0.5V6.4h1.1v9.9h-0.9L59.7,15.3z M59.6,13v-0.2
				c0-1-0.2-1.7-0.5-2.1c-0.3-0.4-0.9-0.6-1.6-0.6c-1.2,0-1.9,1-1.9,2.8c0,1.8,0.7,2.7,1.9,2.7C59,15.5,59.6,14.8,59.6,13z"/>
			<path fill="#A09F9F" d="M63.4,15.5c-0.6-0.6-0.9-1.5-0.9-2.6c0-1.1,0.3-2,0.8-2.7c0.6-0.7,1.3-1,2.2-1c0.9,0,1.6,0.3,2.1,0.9
				c0.5,0.6,0.8,1.3,0.8,2.3V13h-4.8c0,1.6,0.9,2.5,2.3,2.5c0.7,0,1.5-0.2,2.2-0.5V16c-0.4,0.2-0.7,0.3-1.1,0.3
				c-0.3,0.1-0.7,0.1-1.2,0.1C64.8,16.4,64,16.1,63.4,15.5z M63.6,12.1h3.6c0-1.3-0.6-2.1-1.7-2.1C64.4,10.1,63.7,10.8,63.6,12.1z"
				/>
			<path fill="#A09F9F" d="M71.7,16.3l-2.6-7h1.1l1.5,4.1c0.3,1,0.5,1.6,0.6,1.9h0.1c0-0.2,0.2-0.7,0.4-1.4c0.2-0.7,0.8-2.2,1.7-4.6
				h1.1l-2.6,7H71.7z"/>
			<path fill="#A09F9F" d="M77.1,15.5c-0.6-0.6-0.9-1.5-0.9-2.6c0-1.1,0.3-2,0.8-2.7c0.6-0.7,1.3-1,2.2-1c0.9,0,1.6,0.3,2.1,0.9
				c0.5,0.6,0.8,1.3,0.8,2.3V13h-4.8c0,1.6,0.8,2.5,2.3,2.5c0.8,0,1.5-0.2,2.2-0.5V16c-0.4,0.2-0.7,0.3-1.1,0.3
				c-0.3,0.1-0.7,0.1-1.2,0.1C78.5,16.4,77.7,16.1,77.1,15.5z M77.3,12.1H81c0-1.3-0.6-2.1-1.7-2.1C78.1,10.1,77.4,10.8,77.3,12.1z"
				/>
			<path fill="#A09F9F" d="M85,16.3h-1.1V6.4H85V16.3z"/>
			<path fill="#A09F9F" d="M92.3,15.5c-0.6,0.6-1.4,0.9-2.4,0.9c-1.9,0-3.2-1.4-3.2-3.6c0-1.1,0.3-2,0.9-2.6c0.6-0.6,1.4-1,2.4-1
				c1,0,1.7,0.3,2.3,1c0.6,0.6,0.9,1.5,0.9,2.6C93.2,13.9,92.9,14.8,92.3,15.5z M90,15.5c1.4,0,2.1-0.9,2.1-2.7
				c0-1.8-0.7-2.7-2.1-2.7c-1.4,0-2.1,0.9-2.1,2.7C87.9,14.6,88.6,15.5,90,15.5z"/>
			<path fill="#A09F9F" d="M96.1,15.4L96.1,15.4c0,0.4,0,0.8,0,1.1v2.9H95V9.3h0.9l0.1,1h0.1c0.5-0.8,1.2-1.1,2.2-1.1
				c0.9,0,1.6,0.3,2.1,0.9c0.5,0.6,0.8,1.5,0.8,2.7c0,1.1-0.3,2-0.8,2.7c-0.5,0.6-1.2,0.9-2.1,0.9C97.3,16.4,96.6,16.1,96.1,15.4z
				 M96.5,10.7c-0.3,0.4-0.5,1-0.5,1.9v0.2c0,1,0.2,1.7,0.5,2.1c0.3,0.4,0.9,0.6,1.6,0.6c0.6,0,1.1-0.2,1.4-0.7
				c0.3-0.5,0.5-1.2,0.5-2c0-1.7-0.7-2.7-1.9-2.7C97.4,10.1,96.9,10.3,96.5,10.7z"/>
			<path fill="#A09F9F" d="M103.5,15.5c-0.6-0.6-0.9-1.5-0.9-2.6c0-1.1,0.3-2,0.8-2.7c0.6-0.7,1.3-1,2.2-1c0.9,0,1.6,0.3,2.1,0.9
				c0.5,0.6,0.8,1.3,0.8,2.3V13h-4.8c0,1.6,0.9,2.5,2.3,2.5c0.7,0,1.5-0.2,2.2-0.5V16c-0.4,0.2-0.7,0.3-1.1,0.3
				c-0.3,0.1-0.7,0.1-1.2,0.1C104.9,16.4,104.1,16.1,103.5,15.5z M103.7,12.1h3.6c0-1.3-0.6-2.1-1.7-2.1
				C104.6,10.1,103.9,10.8,103.7,12.1z"/>
			<path fill="#A09F9F" d="M115.1,15.3L115.1,15.3c-0.5,0.7-1.3,1.1-2.2,1.1c-0.9,0-1.6-0.3-2.1-0.9c-0.5-0.6-0.8-1.5-0.8-2.7
				c0-1.2,0.3-2,0.8-2.7c0.5-0.6,1.2-1,2.1-1c0.9,0,1.7,0.3,2.2,1h0.1l0-0.5l0-0.5V6.4h1.1v9.9h-0.9L115.1,15.3z M115,13v-0.2
				c0-1-0.2-1.7-0.5-2.1c-0.3-0.4-0.9-0.6-1.6-0.6c-1.2,0-1.9,1-1.9,2.8c0,1.8,0.7,2.7,1.9,2.7C114.4,15.5,115,14.8,115,13z"/>
			<path fill="#A09F9F" d="M127.1,10.2c0.5,0.6,0.8,1.5,0.8,2.6s-0.3,2-0.8,2.7c-0.5,0.6-1.2,0.9-2.1,0.9c-0.9,0-1.7-0.3-2.2-1h-0.1
				l-0.2,0.9h-0.8V6.4h1.1v2.4c0,0.5,0,1-0.1,1.4h0.1c0.5-0.7,1.2-1,2.2-1C125.8,9.2,126.5,9.5,127.1,10.2z M123.2,10.7
				c-0.3,0.4-0.5,1.1-0.5,2.1c0,1,0.2,1.7,0.5,2.1c0.3,0.4,0.8,0.6,1.6,0.6c1.3,0,1.9-1,1.9-2.7c0-1.8-0.6-2.7-1.9-2.7
				C124.1,10.1,123.5,10.3,123.2,10.7z"/>
			<path fill="#A09F9F" d="M128.5,9.3h1.1l1.5,4c0.3,0.9,0.5,1.6,0.6,2h0.1c0.1-0.2,0.2-0.6,0.3-1.1c0.2-0.5,0.8-2.1,1.7-4.8h1.1
				l-3,7.9c-0.3,0.8-0.6,1.3-1,1.7c-0.4,0.3-0.9,0.5-1.5,0.5c-0.3,0-0.6,0-1-0.1v-0.8c0.2,0.1,0.5,0.1,0.8,0.1
				c0.7,0,1.2-0.4,1.5-1.2l0.4-1L128.5,9.3z"/>
		</g>
	</g>
</g>
</svg>
