<?xml version="1.0" encoding="utf-8"?>
<!-- Generator: Adobe Illustrator 18.1.1, SVG Export Plug-In . SVG Version: 6.00 Build 0)  -->
<svg version="1.1" id="Layer_1" xmlns="http://www.w3.org/2000/svg" xmlns:xlink="http://www.w3.org/1999/xlink" x="0px" y="0px"
	 width="175px" height="38.0033px" viewBox="0 0 175 38.0033" enable-background="new 0 0 175 38.0033" xml:space="preserve">
<g>
	<g>
		<path fill="#40A1E6" d="M1.608,24.2476l11.2233-6.3538V8.9469L1.608,15.3007C0.6143,15.8633,0,16.9169,0,18.0588l0,8.9469
			C0,25.8638,0.6143,24.8102,1.608,24.2476z"/>
		<path fill="#75F234" d="M1.608,22.7026l11.2233,6.3538v8.9469L1.608,31.6495C0.6143,31.0869,0,30.0333,0,28.8914l0-8.9469
			C0,21.0864,0.6143,22.1401,1.608,22.7026z"/>
	</g>
	<g>
		<path fill="#40A1E6" d="M27.9728,13.7558l-11.2233,6.3538v8.9469l11.2233-6.3539c0.9937-0.5626,1.608-1.6162,1.608-2.7581v-8.9469
			C29.5808,12.1396,28.9665,13.1932,27.9728,13.7558z"/>
		<path fill="#75F234" d="M27.9728,15.3007L16.7495,8.9469V0l11.2233,6.3539c0.9937,0.5626,1.608,1.6162,1.608,2.7581v8.9469
			C29.5808,16.9169,28.9665,15.8633,27.9728,15.3007z"/>
	</g>
</g>
<g>
	<g>
		<path fill="#40A1E6" d="M52.4473,12.9647v14.0907h-1.7514l-6.3408-9.1388v9.1388H42V12.9849h1.8117l6.2802,9.0784v-9.0986H52.4473
			z"/>
		<path fill="#40A1E6" d="M79.9255,12.9244v14.1309h-2.3553v-9.8433l-3.744,5.4412l-4.0258-5.6023v10.0043h-2.3551V12.9244h2.3349
			l4.0059,5.542l3.8043-5.542H79.9255z"/>
		<path fill="#40A1E6" d="M89.0607,27.2969c-0.0401,0-0.0805,0-0.1208,0h-0.1006c-1.8115-0.0604-3.5024-0.8253-4.7906-2.1538
			c-1.3287-1.3889-2.0531-3.2007-2.0531-5.1532c0-1.9324,0.7245-3.7642,2.0531-5.1532c1.2883-1.3287,2.9792-2.0734,4.7906-2.1337
			h0.2215c1.8117,0.0603,3.5026,0.8051,4.7909,2.1337c1.3085,1.3889,2.0531,3.2207,2.0531,5.1532
			c0,1.9525-0.7447,3.7642-2.0531,5.1532C92.5634,26.4716,90.8725,27.2365,89.0607,27.2969z M88.9399,15.0381
			c-2.5362,0.0805-4.5893,2.2746-4.5893,4.9518c0,2.6973,2.0531,4.8712,4.5893,4.9518c2.5567-0.0806,4.6098-2.2546,4.6098-4.9518
			C93.5497,17.3127,91.4966,15.1186,88.9399,15.0381z"/>
		<path fill="#40A1E6" d="M57.7737,24.6884h6.867v2.3669h-9.2339v-14.202h8.9913v2.3671h-6.6244v3.6074h4.9653v2.3669h-4.9653
			V24.6884z"/>
	</g>
	<g>
		<path fill="#40A1E6" d="M112.6229,15.3729h-3.9447v11.8601h-2.3719V15.3729h-3.9447V13.001h10.2613V15.3729z"/>
		<path fill="#40A1E6" d="M148.9187,13.0415l-4.683,14.1914h-2.0477l-4.7035-14.1914h2.5139l3.2032,9.7313l3.2235-9.7313H148.9187z"
			/>
		<path fill="#40A1E6" d="M164.4339,24.861H171v2.3719h-8.938V13.001h2.3719V24.861z"/>
		<path fill="#40A1E6" d="M152.9367,24.851h6.867v2.3669h-9.2339v-14.202h8.9913v2.3671h-6.6244v3.6074h4.9653v2.3669h-4.9653
			V24.851z"/>
		<path fill="#40A1E6" d="M122.2526,22.2255c0.6082-0.4259,1.0747-1.0138,1.3989-1.7031c0.3245-0.7096,0.4868-1.5812,0.4868-2.5342
			c0-0.973-0.1623-1.8246-0.4868-2.5544c-0.3242-0.6893-0.7907-1.2569-1.3989-1.7029c-1.0947-0.7907-2.376-0.9637-3.4834-0.9637
			c-1.3244,0-4.1191,0.1561-4.1191,0.1561V27.233h2.3719v-4.1968c0.2434,0.0406,0.507,0.0811,0.7907,0.1014
			c0.3042,0.0406,0.6082,0.0609,0.9124,0.0609l2.3922,4.0345h2.7573l-2.6356-4.4399
			C121.6038,22.6308,121.9486,22.4483,122.2526,22.2255z M120.8742,20.2995c-0.7502,0.5474-1.926,0.5676-2.7775,0.4865
			c-0.4056-0.0406-0.7704-0.1014-1.0747-0.1623l0.0003-5.3884c0,0,0.6598-0.0668,1.4901-0.0952v0.0012
			c1.2747-0.0434,1.9811,0.2435,2.3618,0.5155c0.6082,0.4459,0.8919,1.1961,0.8919,2.3314
			C121.7661,19.1034,121.4824,19.8735,120.8742,20.2995z"/>
		<g>
			<path fill="#40A1E6" d="M128.6659,25.3881l-0.7299,1.8449h-2.5342l5.5146-14.2321h2.1691l5.616,14.2321h-2.5545l-0.7299-1.8449
				l-0.8719-2.2302l-2.5342-6.4267l-2.4936,6.4267L128.6659,25.3881z"/>
			<path fill="#40A1E6" d="M127.7442,22.5286c2.9221,0.764,5.4142,0.7672,8.3478,0c0.2757,0.8485,0.4135,1.2725,0.6892,2.121
				c-3.4027,0.9182-6.3235,0.9183-9.7262,0C127.3307,23.8011,127.4685,23.3771,127.7442,22.5286z"/>
		</g>
	</g>
</g>
</svg>
