<?xml version="1.0" encoding="utf-8"?>
<!-- Generator: Adobe Illustrator 18.0.0, SVG Export Plug-In . SVG Version: 6.00 Build 0)  -->
<!DOCTYPE svg PUBLIC "-//W3C//DTD SVG 1.1//EN" "http://www.w3.org/Graphics/SVG/1.1/DTD/svg11.dtd">
<svg version="1.1" id="Layer_1" xmlns="http://www.w3.org/2000/svg" xmlns:xlink="http://www.w3.org/1999/xlink" x="0px" y="0px"
	 viewBox="0 0 23.9 24.5" enable-background="new 0 0 23.9 24.5" xml:space="preserve">
<polygon fill="#FFFFFF" points="3.3,21.2 5.7,22.6 14.2,16.4 21.8,20.7 23.1,19.8 23.2,18.2 15.6,13.9 16.6,3.4 14.2,2.1 11.3,11.6 
	6,8.6 5.3,5.7 3.5,8.7 1.8,11.8 4.7,11 10,13.9 "/>
<polygon opacity="0.5" fill="#FFFFFF" points="12.8,24.5 15.4,23.5 15.7,13 23.7,9.6 23.9,8 22.6,7 14.6,10.3 6.9,3.1 4.3,4.2 
	10.1,12.3 4.5,14.6 1.7,13.5 3.1,16.7 4.4,19.9 5.6,17.2 11.1,14.8 "/>
<polygon opacity="0.25" fill="#FFFFFF" points="21.6,18.5 22.1,15.7 13.7,9.5 15.4,1 14.2,0 12.6,0.5 10.8,9 0.6,11.3 0,14 
	9.9,13.8 8.7,19.7 6.2,21.4 9.6,22.1 13,22.8 11.4,20.3 12.6,14.4 "/>
</svg>
